<svg width="382" height="40" viewBox="0 0 918 87" fill="none" xmlns="http://www.w3.org/2000/svg">
<path d="M53.7556 3.46048C54.1844 2.37477 53.5682 1.15486 52.4255 0.916558C49.5446 0.315793 46.5592 0 43.5 0C19.4756 0 0 19.4756 0 43.5C0 57.9213 7.01768 70.7035 17.8244 78.618C18.2028 78.8951 18.5859 79.1663 18.9735 79.4314C20.9537 80.7857 23.5983 79.8162 24.4796 77.5849L26.1372 73.3879L27.9072 68.9064C28.8067 66.6289 27.9407 64.0714 26.1372 62.415V62.415C21.0272 57.7219 17.8244 50.985 17.8244 43.5C17.8244 29.3198 29.3198 17.8244 43.5 17.8244V17.8244C46.0936 17.8244 48.6153 16.4753 49.568 14.0631L53.7556 3.46048Z" fill="url(#paint0_linear_102_9)"/>
<path d="M68.6618 8.01142C66.6848 6.60721 63.9973 7.56693 63.1065 9.82229L61.4643 13.9802L59.7257 18.3822C58.7953 20.7381 59.6547 23.3832 61.4643 25.1555V25.1555C66.2229 29.816 69.1756 36.3132 69.1756 43.5C69.1756 57.6802 57.6802 69.1756 43.5 69.1756V69.1756C41.3071 69.1756 39.2015 70.3478 38.396 72.3874L33.9586 83.6223C33.5135 84.7493 34.1652 86.0134 35.3556 86.2389C37.9939 86.7385 40.7164 87 43.5 87C67.5244 87 87 67.5244 87 43.5C87 29.0787 79.9823 16.2965 69.1756 8.38204C69.0053 8.25729 68.834 8.13374 68.6618 8.01142Z" fill="url(#paint1_linear_102_9)"/>
<path d="M140.611 68.904C149.339 68.904 156.35 65.5998 161 59.7096L153.274 53.1012C149.625 57.1955 146.048 59.0631 140.611 59.0631C132.026 59.0631 126.089 52.8857 126.089 43.3322C126.089 33.9941 132.17 27.7448 140.611 27.7448C142.863 27.7448 145.081 28.2332 147.087 29.1284C149.83 30.3528 153.709 29.6645 154.811 26.8607L156.362 22.9174C151.987 19.6647 146.538 17.904 140.611 17.904C125.874 17.904 115 28.3913 115 43.3322C115 58.3448 125.874 68.904 140.611 68.904Z" fill="#616161"/>
<path d="M420.611 69C429.339 69 436.35 65.6958 441 59.8056L433.274 53.1972C429.625 57.2916 426.048 59.1592 420.611 59.1592C412.026 59.1592 406.089 52.9817 406.089 43.4282C406.089 34.0901 412.17 27.8408 420.611 27.8408C422.863 27.8408 425.081 28.3292 427.087 29.2244C429.83 30.4488 433.709 29.7605 434.811 26.9567L436.362 23.0134C431.987 19.7607 426.538 18 420.611 18C405.874 18 395 28.4873 395 43.4282C395 58.4408 405.874 69 420.611 69Z" fill="#616161"/>
<path d="M177.034 67.904V18.224H166.594V67.904H177.034Z" fill="#616161"/>
<path d="M190.975 28.088C194.287 28.088 196.591 25.712 196.591 22.544C196.591 19.376 194.287 17 190.975 17C187.663 17 185.359 19.376 185.359 22.544C185.359 25.712 187.663 28.088 190.975 28.088ZM196.159 67.904V32.12H185.719V67.904H196.159Z" fill="#616161"/>
<path d="M248.764 31.4C243.796 31.4 239.26 33.632 236.668 38.456C234.724 34.064 230.62 31.328 225.364 31.4C220.756 31.472 217.156 33.56 214.924 37.232V32.12H204.844V67.904H215.284V47.672C215.284 43.208 217.948 40.184 221.908 40.184C225.868 40.184 228.316 43.064 228.316 47.6V67.904H238.756V47.672C238.756 43.208 241.348 40.184 245.308 40.184C249.412 40.184 251.716 43.064 251.716 47.6V67.904H262.156V46.232C262.156 37.376 256.828 31.4 248.764 31.4Z" fill="#616161"/>
<path d="M279.159 68.552C284.487 68.552 288.663 66.32 290.967 62.288C291.111 64.88 291.471 66.104 292.623 67.904H302.631C300.903 64.952 300.399 62.648 300.399 58.184V45.224C300.399 36.296 294.927 31.4 284.343 31.4C277.935 31.4 272.247 33.488 268.215 37.52L272.967 44C275.847 41.048 279.951 39.392 283.767 39.392C287.871 39.392 290.175 40.976 290.175 43.424C290.175 45.368 289.023 46.016 285.783 46.592L279.951 47.672C271.455 49.184 267.351 52.208 267.351 58.472C267.351 64.592 271.959 68.552 279.159 68.552ZM282.399 61.28C279.159 61.28 277.359 60.056 277.359 57.464C277.359 55.16 278.943 54.008 282.471 53.432L285.927 52.856C288.231 52.352 289.095 52.064 290.103 51.344V53.936C290.103 58.256 286.863 61.28 282.399 61.28Z" fill="#616161"/>
<path d="M322.363 68.624C326.323 68.624 329.707 67.544 332.371 65.312L329.348 57.68C327.764 59.048 326.251 59.624 324.307 59.624C321.571 59.624 320.203 58.112 320.203 55.016V40.328H331.003V32.12H319.411C319.987 31.472 320.203 30.752 320.203 29.24V23.264H309.763V29.312C309.763 31.4 309.187 32.12 307.315 32.12H304.508V40.328H309.763V56.6C309.763 64.376 314.155 68.624 322.363 68.624Z" fill="#616161"/>
<path d="M371.124 49.472C371.124 38.528 364.356 31.4 353.484 31.4C342.324 31.4 334.836 39.32 334.836 49.976C334.836 61.28 342.684 68.624 354.852 68.624C360.9 68.624 366.228 66.752 370.116 63.224L365.58 56.744C362.772 59.336 359.244 60.632 355.428 60.632C349.956 60.632 346.356 57.68 345.42 52.28H371.052C371.124 51.488 371.124 50.768 371.124 49.472ZM345.564 46.016C346.572 41.696 349.452 39.032 353.556 39.032C357.876 39.032 360.612 41.696 360.9 46.016H345.564Z" fill="#616161"/>
<path d="M462.868 67.904C474.172 67.904 482.308 59.84 482.308 49.256C482.308 38.744 474.172 30.68 462.868 30.68C451.636 30.68 443.5 38.744 443.5 49.256C443.5 59.84 451.636 67.904 462.868 67.904ZM462.868 59.264C457.684 59.264 453.94 55.16 453.94 49.256C453.94 43.424 457.684 39.32 462.868 39.32C468.124 39.32 471.868 43.424 471.868 49.256C471.868 55.16 468.124 59.264 462.868 59.264Z" fill="#616161"/>
<path d="M499.133 67.184V46.952C499.133 42.416 502.013 39.464 506.405 39.464C510.725 39.464 513.029 42.128 513.029 46.88V67.184H523.397V45.512C523.397 36.584 518.069 30.68 509.861 30.68C505.181 30.68 501.149 32.768 498.773 36.44V31.4H488.693V67.184H499.133Z" fill="#616161"/>
<path d="M542.024 67.184V46.952C542.024 42.416 544.904 39.464 549.296 39.464C553.616 39.464 555.92 42.128 555.92 46.88V67.184H566.288V45.512C566.288 36.584 560.96 30.68 552.752 30.68C548.072 30.68 544.04 32.768 541.664 36.44V31.4H531.584V67.184H542.024Z" fill="#616161"/>
<path d="M608.17 48.752C608.17 37.808 601.402 30.68 590.53 30.68C579.37 30.68 571.882 38.6 571.882 49.256C571.882 60.56 579.73 67.904 591.898 67.904C597.946 67.904 603.274 66.032 607.162 62.504L602.626 56.024C599.818 58.616 596.29 59.912 592.474 59.912C587.002 59.912 583.402 56.96 582.466 51.56H608.098C608.17 50.768 608.17 50.048 608.17 48.752ZM582.61 45.296C583.618 40.976 586.498 38.312 590.602 38.312C594.922 38.312 597.658 40.976 597.946 45.296H582.61Z" fill="#616161"/>
<path d="M631.536 67.904C636.864 67.904 642.048 65.888 645.576 62.288L639.312 55.664C637.008 58.256 634.776 59.264 631.536 59.264C626.424 59.264 622.752 55.088 622.752 49.256C622.752 43.496 626.424 39.32 631.536 39.32C634.704 39.32 636.936 40.328 639.168 42.848L645.504 36.224C642.048 32.696 636.864 30.68 631.536 30.68C620.376 30.68 612.312 38.528 612.312 49.256C612.312 60.056 620.376 67.904 631.536 67.904Z" fill="#616161"/>
<path d="M666.67 67.904C670.63 67.904 674.014 66.824 676.678 64.592L673.654 56.96C672.07 58.328 670.558 58.904 668.614 58.904C665.878 58.904 664.51 57.392 664.51 54.296V39.608H675.31V31.4H663.718C664.294 30.752 664.51 30.032 664.51 28.52V22.544H654.07V28.592C654.07 30.68 653.494 31.4 651.622 31.4H648.814V39.608H654.07V55.88C654.07 63.656 658.462 67.904 666.67 67.904Z" fill="#616161"/>
<path d="M718.995 67.904C733.899 67.904 745.995 58.76 745.995 42.992C745.995 27.224 733.971 18.224 718.995 18.224H699.987V67.904H718.995ZM710.715 28.088H718.419C727.779 28.088 734.835 32.912 734.835 42.992C734.835 53.144 727.707 58.04 718.419 58.04H710.715V28.088Z" fill="#816CFF"/>
<path d="M757.81 28.088C761.122 28.088 763.426 25.712 763.426 22.544C763.426 19.376 761.122 17 757.81 17C754.498 17 752.194 19.376 752.194 22.544C752.194 25.712 754.498 28.088 757.81 28.088ZM762.994 67.904V32.12H752.554V67.904H762.994Z" fill="#816CFF"/>
<path d="M787.519 82.304C799.111 82.304 807.751 76.76 807.751 64.592V32.12H797.743V37.016C795.007 33.344 790.975 31.4 786.079 31.4C776.431 31.4 769.447 38.888 769.447 49.256C769.447 59.696 776.431 67.184 786.079 67.184C790.903 67.184 794.719 65.24 797.383 61.712V64.952C797.383 71.144 793.351 74.096 787.519 74.096C782.767 74.096 778.087 72.584 774.847 69.704L771.031 77.192C774.631 80.432 781.255 82.304 787.519 82.304ZM788.671 58.544C783.415 58.544 779.743 54.728 779.743 49.256C779.743 43.856 783.415 40.04 788.671 40.04C793.927 40.04 797.599 43.856 797.599 49.256C797.599 54.728 793.927 58.544 788.671 58.544Z" fill="#816CFF"/>
<path d="M821.724 28.088C825.036 28.088 827.34 25.712 827.34 22.544C827.34 19.376 825.036 17 821.724 17C818.412 17 816.108 19.376 816.108 22.544C816.108 25.712 818.412 28.088 821.724 28.088ZM826.908 67.904V32.12H816.468V67.904H826.908Z" fill="#816CFF"/>
<path d="M850.209 68.624C854.169 68.624 857.553 67.544 860.217 65.312L857.193 57.68C855.609 59.048 854.097 59.624 852.153 59.624C849.417 59.624 848.049 58.112 848.049 55.016V40.328H858.849V32.12H847.257C847.833 31.472 848.049 30.752 848.049 29.24V23.264H837.609V29.312C837.609 31.4 837.033 32.12 835.161 32.12H832.353V40.328H837.609V56.6C837.609 64.376 842.001 68.624 850.209 68.624Z" fill="#816CFF"/>
<path d="M877.07 68.552C882.398 68.552 886.574 66.32 888.878 62.288C889.022 64.88 889.382 66.104 890.534 67.904H900.542C898.814 64.952 898.31 62.648 898.31 58.184V45.224C898.31 36.296 892.838 31.4 882.254 31.4C875.846 31.4 870.158 33.488 866.126 37.52L870.878 44C873.758 41.048 877.862 39.392 881.678 39.392C885.782 39.392 888.086 40.976 888.086 43.424C888.086 45.368 886.934 46.016 883.694 46.592L877.862 47.672C869.366 49.184 865.262 52.208 865.262 58.472C865.262 64.592 869.87 68.552 877.07 68.552ZM880.31 61.28C877.07 61.28 875.27 60.056 875.27 57.464C875.27 55.16 876.854 54.008 880.382 53.432L883.838 52.856C886.142 52.352 887.006 52.064 888.014 51.344V53.936C888.014 58.256 884.774 61.28 880.31 61.28Z" fill="#816CFF"/>
<path d="M917.178 67.904V18.224H906.738V67.904H917.178Z" fill="#816CFF"/>
<defs>
<linearGradient id="paint0_linear_102_9" x1="61.1122" y1="3.61758e-07" x2="25.6756" y2="87" gradientUnits="userSpaceOnUse">
<stop stop-color="#0085FF"/>
<stop offset="1" stop-color="#9E00FF"/>
</linearGradient>
<linearGradient id="paint1_linear_102_9" x1="61.1122" y1="3.61758e-07" x2="25.6756" y2="87" gradientUnits="userSpaceOnUse">
<stop stop-color="#0085FF"/>
<stop offset="1" stop-color="#9E00FF"/>
</linearGradient>
</defs>
</svg>
