<svg xmlns="http://www.w3.org/2000/svg" xmlns:xlink="http://www.w3.org/1999/xlink" viewBox="0 0 358.85 154.84" transform="matrix(1, 0, 0, 1, 0, 0)">
    <defs fill="#000000fff">
        <style>.cls-1{fill:none;}.cls-2{clip-path:url(#clip-path);}.cls-3{fill:#000000;}</style>
        <clipPath id="clip-path" transform="translate(0 0)" fill="#000000fff">
            <rect class="cls-1" width="358.85" height="154.84" fill="#000000fff"/>
        </clipPath>
    </defs>
    <g id="Capa_2" data-name="Capa 2">
        <g id="Capa_1-2" data-name="Capa 1">
            <g class="cls-2">
                <path class="cls-3" d="M0,76.69c.21-3.79.33-7.6.68-11.39C.83,63.73,1.06,62,3.5,62c19.25.18,38.23,1.8,55.13,12.2,16.26,10,25.86,24.92,30.24,43.14a134.4,134.4,0,0,1,3.27,33c0,2.34-.47,3.41-3.18,3.76A78.56,78.56,0,0,1,.56,87.6C0,84,.49,80.34.49,76.7H0m16.21,7a43.32,43.32,0,0,0,4.33,17.94c10.17,22,27.33,34.6,51.53,37.63,3.26.41,4.43-.43,4.19-3.87a71.21,71.21,0,0,0-5.77-24.42C60.86,89.65,42.76,81.58,20.84,79.37c-3.88-.4-5.91.19-4.63,4.29" transform="translate(0 0)" fill="#000000fff"/>
                <path class="cls-3" d="M95.49,102.45C93,96.68,90.47,91.61,87,87.2c-2-2.57-1.58-4.11.59-6.12,8.63-8,19-12.56,30.24-15.41,10.66-2.71,21.59-3.5,32.58-3.63,2.87,0,4.33.38,4.75,3.87,4.28,35.71-13.63,67.82-46.4,82.74-5.64,2.57-5.7,2.52-5.78-3.78a18.49,18.49,0,0,0-.08-3c-4.13-24,8.17-41.52,22.87-58.11,3.84-4.33,8.67-7.59,12.91-11.53-17.72,5.06-32.25,14.66-43.16,30.2" transform="translate(0 0)" fill="#000000fff"/>
                <path class="cls-3" d="M78,0c17.24.07,32.55,5.83,46.09,16.21,3.16,2.42,4.74,2.93,7.33-.58,3.12-4.22,5.4-3.83,7.52.91,3.87,8.6,7.57,17.28,11.21,26,1.56,3.72.33,5.7-3.56,5.22q-15.06-1.83-30-4.32c-4.11-.68-4.18-3.61-1.81-6.18,3.7-4,2-6.22-1.75-8.86A61,61,0,0,0,23.67,49.69c-1.05,2-1.94,3.25-4.44,2.86a105.88,105.88,0,0,0-11.36-1.3c-3.23-.15-3.4-1.3-2.22-3.92A78.6,78.6,0,0,1,43.4,8,76.54,76.54,0,0,1,78,0" transform="translate(0 0)" fill="#000000fff"/>
                <path class="cls-3" d="M279.59,73c0-4.3.14-8.6,0-12.9-.13-2.76.72-4,3.61-3.67a20.24,20.24,0,0,0,4.47,0c3.21-.39,3.88,1.13,3.83,4-.16,7.94-.12,15.88,0,23.82.06,5.39,3.19,8.54,8.14,8.48s7.89-3.28,7.91-8.7c0-7.77.19-15.55-.07-23.32-.13-3.55,1.05-4.76,4.47-4.31a23.94,23.94,0,0,0,4.48,0c2.1-.12,3,.74,2.94,2.88-.08,9.26.15,18.53-.13,27.78-.2,6.57-3.83,11.12-9.93,13.57A24.93,24.93,0,0,1,289,100.4c-6-2.71-9.17-7.45-9.36-14-.13-4.46,0-8.93,0-13.4" transform="translate(0 0)" fill="#000000fff"/>
                <path class="cls-3" d="M341.69,102.57c-5.47.2-10.67-2.29-15-6.9-1.86-2-2.67-3.76.62-5.18a18.68,18.68,0,0,0,3.38-2.07c1.8-1.3,3.17-1.89,4.85.49s4.62,3.23,7.51,3.18c1.82,0,3.73-.65,4.17-2.84.38-2-.9-3.18-2.48-3.85C341.9,84.17,338.9,83.22,336,82c-7.72-3.13-11.06-8.88-9.27-15.83s9-11.51,16.54-10.45a29.08,29.08,0,0,1,6.19,1.74c2.5,1,6.05,2.45,6.06,4.57,0,2.74-3.72,4.3-5.67,6.52-1,1.13-1.65.17-2.46-.33A23.71,23.71,0,0,0,343,65.91c-1.84-.65-3.76-.44-4.61,1.66s.2,3.64,2,4.46c2.41,1.08,4.95,1.83,7.43,2.76,8.83,3.34,12.19,8.78,10.55,17.07-1.3,6.6-7.36,10.69-16.76,10.71" transform="translate(0 0)" fill="#000000fff"/>
                <path class="cls-3" d="M256.54,102.57c-5.51.19-10.71-2.25-15-6.84-2-2.1-2.54-3.79.59-5.27a21.71,21.71,0,0,0,3.38-2.07c1.77-1.26,3.17-1.91,4.81.46s4.29,3.14,7,3.26c2,.09,4.14-.48,4.65-2.85.45-2.15-1-3.37-2.82-4.08-2.62-1-5.29-1.89-7.9-2.9-8.54-3.33-11.7-9.06-9.45-17,1.85-6.59,10-10.87,17.69-9.23a25.43,25.43,0,0,1,4.28,1.29c7.59,3.05,7.93,5.17,1.92,10.36-1.49,1.3-2.54,1.84-4.13.23a10.07,10.07,0,0,0-3-1.7c-2.26-1.06-4.42-.83-5.52,1.53s.75,3.74,2.62,4.56c2.26,1,4.68,1.62,7,2.5,8.44,3.19,12.27,9.07,10.86,16.61-1.25,6.73-7.61,11.14-17,11.18" transform="translate(0 0)" fill="#000000fff"/>
                <path class="cls-3" d="M201.84,74.24c0,4.79.12,9.59,0,14.37-.1,2.72.7,4,3.62,3.75,2.14-.19,4.34.18,6.46-.08,3.85-.48,4.91.88,5,4.81.16,4.57-1.34,5.59-5.58,5.31-5.61-.36-11.27-.19-16.91,0-2.58.06-3.88-.39-3.84-3.44.15-13.06.13-26.12,0-39.17,0-2.66.95-3.28,3.46-3.35,7.78-.22,7.77-.33,7.77,7.42V74.24" transform="translate(0 0)" fill="#000000fff"/>
                <path class="cls-3" d="M221.65,79V63.1c0-6.92,0-6.91,7.51-6.65,1.78.07,3.72-.38,3.7,2.54q-.09,20.34,0,40.69c0,1.84-.59,2.77-2.57,2.65a24.72,24.72,0,0,0-4.47,0c-3.14.39-4.39-.63-4.25-4,.27-6.44.08-12.9.08-19.35" transform="translate(0 0)" fill="#000000fff"/>
            </g>
        </g>
    </g>
</svg>