<?xml version="1.0" encoding="UTF-8"?>
<svg version="1.1" xmlns="http://www.w3.org/2000/svg" width="562" height="444">
<path d="M0 0 C1.10501862 -0.01034775 1.10501862 -0.01034775 2.23236084 -0.02090454 C21.19890335 -0.1209396 38.14719993 5.30491274 54.125 15.625 C54.93195313 16.13289062 55.73890625 16.64078125 56.5703125 17.1640625 C60.94297425 19.97815175 64.49616688 22.86756417 68.125 26.625 C69.29289062 27.81416016 69.29289062 27.81416016 70.484375 29.02734375 C80.88239729 40.05400464 88.54996245 52.10510719 93.125 66.625 C93.39352783 67.46345459 93.66205566 68.30190918 93.9387207 69.16577148 C96.23872683 77.18474864 96.6197227 84.95836241 96.57104492 93.23266602 C96.56254863 95.42495294 96.59138503 97.61460982 96.62304688 99.80664062 C96.73577745 122.63089963 87.64719117 142.31454813 73.125 159.625 C72.56296875 160.31078125 72.0009375 160.9965625 71.421875 161.703125 C68.90275284 164.73116073 66.53110714 167.55700638 63.125 169.625 C62.465 169.625 61.805 169.625 61.125 169.625 C60.795 170.615 60.465 171.605 60.125 172.625 C44.35496476 186.84319666 20.78232713 191.80074463 0.375 191.8125 C-0.7284375 191.82474609 -1.831875 191.83699219 -2.96875 191.84960938 C-13.54621 191.86823166 -23.4948409 190.54768673 -33.4375 186.875 C-34.16291992 186.61041992 -34.88833984 186.34583984 -35.63574219 186.07324219 C-59.50116954 177.12768627 -78.55190711 158.78533169 -89.52734375 135.88671875 C-92.11663146 129.61989198 -94.03218193 123.14461134 -95.875 116.625 C-96.05530762 116.03952393 -96.23561523 115.45404785 -96.42138672 114.85083008 C-97.47122449 109.69939253 -97.14199358 104.29334402 -97.17016602 99.0480957 C-97.18157007 97.57729381 -97.20183322 96.10652938 -97.23168945 94.63598633 C-97.70324581 71.35585472 -89.38437156 51.68266824 -74.875 33.625 C-74.35292969 32.87992188 -73.83085938 32.13484375 -73.29296875 31.3671875 C-72.82503906 30.79226562 -72.35710937 30.21734375 -71.875 29.625 C-71.215 29.625 -70.555 29.625 -69.875 29.625 C-69.875 28.965 -69.875 28.305 -69.875 27.625 C-68.4140625 26.1171875 -68.4140625 26.1171875 -66.5 24.5 C-65.87351562 23.96117187 -65.24703125 23.42234375 -64.6015625 22.8671875 C-62.875 21.625 -62.875 21.625 -60.875 21.625 C-60.875 20.965 -60.875 20.305 -60.875 19.625 C-58.94826916 18.27599062 -56.95517764 17.02125762 -54.9375 15.8125 C-53.83535156 15.14605469 -52.73320313 14.47960937 -51.59765625 13.79296875 C-50.35817096 13.06791366 -49.1171891 12.34541301 -47.875 11.625 C-47.16956055 11.20919678 -46.46412109 10.79339355 -45.73730469 10.36499023 C-31.22914893 2.01319367 -16.48688252 0.04301761 0 0 Z M-63.875 52.625 C-63.875 56.915 -63.875 61.205 -63.875 65.625 C-33.515 65.625 -3.155 65.625 28.125 65.625 C28.125 96.975 28.125 128.325 28.125 160.625 C32.745 160.625 37.365 160.625 42.125 160.625 C42.125 124.985 42.125 89.345 42.125 52.625 C7.145 52.625 -27.835 52.625 -63.875 52.625 Z M-63.875 88.625 C-63.875 92.915 -63.875 97.205 -63.875 101.625 C-45.395 101.955 -26.915 102.285 -7.875 102.625 C-7.545 121.765 -7.215 140.905 -6.875 160.625 C-2.585 160.625 1.705 160.625 6.125 160.625 C6.125 136.865 6.125 113.105 6.125 88.625 C-16.975 88.625 -40.075 88.625 -63.875 88.625 Z " fill="#EF5650" transform="translate(128.875,126.375)"/>
<path d="M0 0 C10.56 0 21.12 0 32 0 C32 4.29 32 8.58 32 13 C30.02 13 28.04 13 26 13 C29.63 22.57 33.26 32.14 37 42 C40.03731156 34.45789064 40.03731156 34.45789064 42.921875 26.8671875 C43.22480469 26.0421875 43.52773438 25.2171875 43.83984375 24.3671875 C44.14019531 23.54476562 44.44054687 22.72234375 44.75 21.875 C45.06582031 21.01390625 45.38164062 20.1528125 45.70703125 19.265625 C46.47265646 17.17755625 47.23696534 15.08901647 48 13 C46.5459375 13.0309375 46.5459375 13.0309375 45.0625 13.0625 C42 13 42 13 41 12 C41 8.04 41 4.08 41 0 C51.23 0 61.46 0 72 0 C72 4.29 72 8.58 72 13 C69.03 13 66.06 13 63 13 C62.63390625 14.15628906 62.2678125 15.31257812 61.890625 16.50390625 C59.71841531 23.01671998 57.15190231 29.37658811 54.61746216 35.75442505 C53.73679278 37.97073758 52.85906307 40.18819366 51.98217773 42.40600586 C50.83306162 45.31229137 49.68319605 48.21827807 48.53271484 51.12402344 C46.69625892 55.76510283 44.87231736 60.4109659 43.0625 65.0625 C42.79832275 65.74054688 42.53414551 66.41859375 42.26196289 67.1171875 C40.92024361 70.57595513 39.60751387 74.04399443 38.3203125 77.5234375 C38.04566162 78.26456787 37.77101074 79.00569824 37.48803711 79.76928711 C36.97194028 81.16710838 36.45945431 82.56627075 35.95141602 83.96704102 C34.85751769 86.93741059 33.76802526 89.34796211 32 92 C29.84521484 92.34057617 29.84521484 92.34057617 27.2109375 92.29296875 C26.26992188 92.28330078 25.32890625 92.27363281 24.359375 92.26367188 C23.37453125 92.23853516 22.3896875 92.21339844 21.375 92.1875 C19.88613281 92.16719727 19.88613281 92.16719727 18.3671875 92.14648438 C15.91122839 92.11106189 13.45554718 92.05725369 11 92 C11 87.71 11 83.42 11 79 C16.94 78.505 16.94 78.505 23 78 C23.81756238 75.93950145 24.62884734 73.87651147 25.4375 71.8125 C25.88996094 70.66394531 26.34242188 69.51539063 26.80859375 68.33203125 C28.88262547 63.00995389 28.88262547 63.00995389 28.1796875 57.5625 C27.74914062 56.716875 27.31859375 55.87125 26.875 55 C24.96799992 51.0658327 23.23033738 47.15391517 21.6875 43.0625 C19.44069502 37.11887532 17.11013429 31.21204779 14.75 25.3125 C14.39639404 24.4263501 14.04278809 23.5402002 13.6784668 22.62719727 C13.3462915 21.79760498 13.01411621 20.9680127 12.671875 20.11328125 C12.3737793 19.36860596 12.07568359 18.62393066 11.76855469 17.85668945 C11.22763809 16.54993255 10.63248784 15.26497569 10 14 C7.64400765 13.53248212 7.64400765 13.53248212 4.9375 13.375 C3.308125 13.25125 1.67875 13.1275 0 13 C0 8.71 0 4.42 0 0 Z " fill="#EC5D58" transform="translate(384,198)"/>
<path d="M0 0 C7.77235232 5.51446226 14.01594699 13.13344825 15.84765625 22.67578125 C16.74824254 33.43852556 14.98019471 42.66207643 8.84765625 51.67578125 C8.18765625 51.67578125 7.52765625 51.67578125 6.84765625 51.67578125 C6.51765625 52.66578125 6.18765625 53.65578125 5.84765625 54.67578125 C5.18765625 54.67578125 4.52765625 54.67578125 3.84765625 54.67578125 C3.84765625 55.33578125 3.84765625 55.99578125 3.84765625 56.67578125 C-6.57270765 62.27032089 -14.25197202 64.84233969 -26.15234375 62.67578125 C-32.17843326 60.79146224 -37.26495512 57.62728695 -42.15234375 53.67578125 C-42.15234375 53.01578125 -42.15234375 52.35578125 -42.15234375 51.67578125 C-42.81234375 51.67578125 -43.47234375 51.67578125 -44.15234375 51.67578125 C-44.15234375 50.68578125 -44.15234375 49.69578125 -44.15234375 48.67578125 C-44.81234375 48.67578125 -45.47234375 48.67578125 -46.15234375 48.67578125 C-49.69310478 42.07012456 -50.78254769 36.62995706 -50.65234375 29.17578125 C-50.6678125 28.29019531 -50.68328125 27.40460938 -50.69921875 26.4921875 C-50.6615705 20.08257368 -49.1723736 15.30995995 -46.15234375 9.67578125 C-45.49234375 9.67578125 -44.83234375 9.67578125 -44.15234375 9.67578125 C-44.15234375 8.68578125 -44.15234375 7.69578125 -44.15234375 6.67578125 C-32.9682991 -5.22625145 -14.08020548 -8.66277615 0 0 Z M-34.15234375 18.67578125 C-36.79939523 24.22198436 -37.15013623 30.18917686 -35.46484375 36.078125 C-33.33137586 41.42068418 -30.98536484 44.54853231 -26.15234375 47.67578125 C-21.10393881 49.73253882 -16.38766091 50.38771006 -11.15234375 48.67578125 C-5.73256151 45.60651389 -1.4034836 41.94385409 0.3984375 35.796875 C1.82265871 29.07207397 0.93743118 23.73174011 -2.15234375 17.67578125 C-2.64734375 16.68578125 -2.64734375 16.68578125 -3.15234375 15.67578125 C-3.81234375 15.67578125 -4.47234375 15.67578125 -5.15234375 15.67578125 C-5.15234375 15.01578125 -5.15234375 14.35578125 -5.15234375 13.67578125 C-16.41151325 7.12499172 -25.52977063 8.32869351 -34.15234375 18.67578125 Z " fill="#EE5853" transform="translate(508.15234375,200.32421875)"/>
<path d="M0 0 C4.67722651 3.90947443 6.77051732 8.05668242 8 14 C8.24699892 16.85831275 8.23470532 19.6913924 8.1953125 22.55859375 C8.1924826 23.34774673 8.18965271 24.13689972 8.18673706 24.94996643 C8.17563057 27.44597172 8.15054455 29.94160498 8.125 32.4375 C8.11495785 34.13996874 8.10583417 35.84244316 8.09765625 37.54492188 C8.0757226 41.69675576 8.04125977 45.84831502 8 50 C8.71027344 49.98839844 9.42054688 49.97679687 10.15234375 49.96484375 C11.07144531 49.95582031 11.99054688 49.94679687 12.9375 49.9375 C13.85402344 49.92589844 14.77054687 49.91429687 15.71484375 49.90234375 C18 50 18 50 19 51 C19 54.63 19 58.26 19 62 C11.41 62 3.82 62 -4 62 C-4.495 60.02 -4.495 60.02 -5 58 C-6.010625 58.61875 -7.02125 59.2375 -8.0625 59.875 C-14.46590714 63.50832156 -20.92706181 65.13719105 -28.23046875 63.5 C-34.69771615 61.5934078 -39.02514377 58.99633359 -42.8125 53.25 C-45.22257751 46.65399838 -45.73578264 40.79835364 -43.21875 34.14453125 C-40.43113056 29.23939319 -35.32139795 24.91534188 -30 23 C-27.03801588 22.68683367 -24.10130827 22.67547937 -21.125 22.6875 C-20.33480469 22.67138672 -19.54460937 22.65527344 -18.73046875 22.63867188 C-13.72376901 22.63450657 -10.38553361 23.32778579 -6 26 C-6.06010418 24.06164034 -6.14891717 22.12415509 -6.25 20.1875 C-6.29640625 19.10855469 -6.3428125 18.02960938 -6.390625 16.91796875 C-6.73410682 13.92296853 -6.73410682 13.92296853 -8.859375 12.17578125 C-13.00672913 9.89776374 -16.3221861 9.68814574 -21 10 C-25.0637015 11.18558696 -27.5830818 12.3746227 -30 16 C-31.58367747 15.85795259 -33.16693318 15.71119847 -34.75 15.5625 C-35.63171875 15.48128906 -36.5134375 15.40007812 -37.421875 15.31640625 C-39.69350452 15.03761535 -41.79851823 14.61209423 -44 14 C-42.98521288 8.03144941 -38.20570486 3.69669605 -33.5625 0.125 C-23.68167116 -4.21292486 -9.66519135 -5.61652804 0 0 Z M-28 36 C-30.62302514 38.68385769 -30.62302514 38.68385769 -32 42 C-31.45967344 45.37704097 -30.31845491 47.4738571 -28.5625 50.375 C-24.28572139 53.08710351 -19.90110398 52.81009983 -15 52 C-11.62958131 50.50203614 -8.61750301 48.61750301 -6 46 C-5.92851801 44.64756083 -5.91600546 43.29165633 -5.9375 41.9375 C-5.958125 40.638125 -5.97875 39.33875 -6 38 C-13.2974617 33.82724929 -20.36858599 30.62332194 -28 36 Z " fill="#ED5954" transform="translate(328,199)"/>
<path d="M0 0 C0 6.93 0 13.86 0 21 C2.6915625 20.9690625 2.6915625 20.9690625 5.4375 20.9375 C7.29166122 20.9161878 9.14712498 20.92773498 11 21 C12 22 12 22 12.1328125 24.46875 C12.13023437 25.4690625 12.12765625 26.469375 12.125 27.5 C12.12886719 29.00046875 12.12886719 29.00046875 12.1328125 30.53125 C12 33 12 33 11 34 C9.14712498 34.07226502 7.29166122 34.0838122 5.4375 34.0625 C4.42558594 34.05347656 3.41367187 34.04445312 2.37109375 34.03515625 C1.19740234 34.01775391 1.19740234 34.01775391 0 34 C0.11810088 38.9480849 0.2423384 43.89596276 0.37231445 48.84375 C0.41567817 50.52762642 0.4573522 52.21154723 0.49731445 53.89550781 C0.55498234 56.31328724 0.6186865 58.73084295 0.68359375 61.1484375 C0.70030624 61.9036972 0.71701874 62.65895691 0.73423767 63.43710327 C0.77555107 67.34739799 0.77555107 67.34739799 2 71 C2.63808594 70.98839844 3.27617187 70.97679687 3.93359375 70.96484375 C4.75988281 70.95582031 5.58617187 70.94679688 6.4375 70.9375 C7.26121094 70.92589844 8.08492188 70.91429687 8.93359375 70.90234375 C11 71 11 71 12 72 C12.07226502 73.85287502 12.0838122 75.70833878 12.0625 77.5625 C12.05347656 78.57441406 12.04445313 79.58632813 12.03515625 80.62890625 C12.02355469 81.41136719 12.01195312 82.19382812 12 83 C5.63055495 86.11972819 0.68329115 87.03064616 -6.25 84.8125 C-8.94770607 83.69062997 -9.98031534 83.0228596 -11.9375 80.75 C-14.24341783 74.78174209 -14.13974775 68.528291 -14.09765625 62.22265625 C-14.0962413 61.41130722 -14.09482635 60.59995819 -14.09336853 59.76402283 C-14.08781357 57.19680953 -14.07526967 54.62968652 -14.0625 52.0625 C-14.05747917 50.31185023 -14.05291729 48.56119907 -14.04882812 46.81054688 C-14.03785893 42.5403303 -14.02062582 38.27018041 -14 34 C-15.7015625 34.0309375 -15.7015625 34.0309375 -17.4375 34.0625 C-21 34 -21 34 -22 33 C-22.07244053 30.98035801 -22.08377188 28.95832876 -22.0625 26.9375 C-22.05347656 25.83277344 -22.04445312 24.72804687 -22.03515625 23.58984375 C-22.02355469 22.73519531 -22.01195312 21.88054687 -22 21 C-19.36 21 -16.72 21 -14 21 C-14.05800781 20.40832031 -14.11601562 19.81664062 -14.17578125 19.20703125 C-14.54749067 12.6968063 -14.54749067 12.6968063 -11.9375 9.375 C-10.4834375 8.199375 -10.4834375 8.199375 -9 7 C-7.76184006 5.7379271 -6.53296606 4.46669141 -5.3125 3.1875 C-2.24733475 0 -2.24733475 0 0 0 Z " fill="#EC5D57" transform="translate(264,177)"/>
<path d="M0 0 C7.59 0 15.18 0 23 0 C23 16.83 23 33.66 23 51 C26.3 51 29.6 51 33 51 C33 54.96 33 58.92 33 63 C22.11 63 11.22 63 0 63 C0 59.04 0 55.08 0 51 C3.3 51 6.6 51 10 51 C10 38.46 10 25.92 10 13 C7.03 13 4.06 13 1 13 C0 12 0 12 -0.09765625 9.27734375 C-0.06510417 6.18489583 -0.03255208 3.09244792 0 0 Z " fill="#EA5B56" transform="translate(350,198)"/>
<path d="M0 0 C0 6.93 0 13.86 0 21 C3.63 21 7.26 21 11 21 C10.67 24.96 10.34 28.92 10 33 C6.37 33 2.74 33 -1 33 C-1 36.63 -1 40.26 -1 44 C-4.465 43.505 -4.465 43.505 -8 43 C-8 42.34 -8 41.68 -8 41 C-8.99 41 -9.98 41 -11 41 C-11 40.34 -11 39.68 -11 39 C-10.01 39 -9.02 39 -8 39 C-8 38.01 -8 37.02 -8 36 C-8.66 36 -9.32 36 -10 36 C-10.66 34.68 -11.32 33.36 -12 32 C-14.97 32 -17.94 32 -21 32 C-21 28.7 -21 25.4 -21 22 C-18.69 22 -16.38 22 -14 22 C-14.05800781 21.33613281 -14.11601562 20.67226562 -14.17578125 19.98828125 C-14.54749067 12.71339693 -14.54749067 12.71339693 -11.9375 9.3125 C-10.968125 8.549375 -9.99875 7.78625 -9 7 C-7.76051106 5.73923228 -6.53169155 4.46790619 -5.3125 3.1875 C-2.24733475 0 -2.24733475 0 0 0 Z " fill="#EE5650" transform="translate(264,177)"/>
<path d="M0 0 C4.67722651 3.90947443 6.77051732 8.05668242 8 14 C8.24699892 16.85831275 8.23470532 19.6913924 8.1953125 22.55859375 C8.1924826 23.34774673 8.18965271 24.13689972 8.18673706 24.94996643 C8.17563057 27.44597172 8.15054455 29.94160498 8.125 32.4375 C8.11495785 34.13996874 8.10583417 35.84244316 8.09765625 37.54492188 C8.0757226 41.69675576 8.04125977 45.84831502 8 50 C8.71027344 49.98839844 9.42054688 49.97679687 10.15234375 49.96484375 C11.07144531 49.95582031 11.99054688 49.94679687 12.9375 49.9375 C13.85402344 49.92589844 14.77054687 49.91429687 15.71484375 49.90234375 C18 50 18 50 19 51 C19.07226502 52.85287502 19.0838122 54.70833878 19.0625 56.5625 C19.05347656 57.57441406 19.04445313 58.58632813 19.03515625 59.62890625 C19.02355469 60.41136719 19.01195312 61.19382812 19 62 C18.34 62 17.68 62 17 62 C17 58.7 17 55.4 17 52 C15.535625 52.020625 14.07125 52.04125 12.5625 52.0625 C11.04167482 52.08392007 9.51928038 52.07179964 8 52 C6.09218886 50.09218886 6.79336453 46.60238115 6.75390625 44 C6.72092184 42.54035962 6.68771109 41.08072435 6.65429688 39.62109375 C6.60721859 37.32181944 6.56288944 35.02255847 6.52319336 32.72314453 C6.37617989 24.6083529 6.19374522 16.87412733 4 9 C3.84990479 8.28972656 3.69980957 7.57945312 3.54516602 6.84765625 C3.15982901 4.84283884 3.15982901 4.84283884 1.25 3.75 C-1.28737029 2.9042099 -3.34234296 2.85235239 -6 3 C-6.33 5.64 -6.66 8.28 -7 11 C-7.92941406 10.89300781 -8.85882813 10.78601563 -9.81640625 10.67578125 C-19.36607794 9.60414235 -19.36607794 9.60414235 -28 13 C-28.66 13.99 -29.32 14.98 -30 16 C-31.58367747 15.85795259 -33.16693318 15.71119847 -34.75 15.5625 C-35.63171875 15.48128906 -36.5134375 15.40007812 -37.421875 15.31640625 C-39.69350452 15.03761535 -41.79851823 14.61209423 -44 14 C-42.98521288 8.03144941 -38.20570486 3.69669605 -33.5625 0.125 C-23.68167116 -4.21292486 -9.66519135 -5.61652804 0 0 Z " fill="#EE5852" transform="translate(328,199)"/>
<path d="M0 0 C1.32924751 -0.00422974 1.32924751 -0.00422974 2.68534851 -0.00854492 C4.13955452 -0.00550858 4.13955452 -0.00550858 5.62313843 -0.00241089 C6.64609512 -0.00416321 7.66905182 -0.00591553 8.7230072 -0.00772095 C12.11079596 -0.0121293 15.49853271 -0.00920545 18.88632202 -0.00582886 C21.23376475 -0.00650208 23.58120741 -0.00747227 25.9286499 -0.00872803 C30.84976871 -0.01020354 35.77086938 -0.00805475 40.69198608 -0.00338745 C47.0153936 0.00231601 53.33875872 -0.00097401 59.66216469 -0.00695992 C64.50897545 -0.01056413 69.35577607 -0.0094277 74.20258713 -0.00683212 C76.53510925 -0.00616279 78.86763228 -0.00699149 81.20015335 -0.00931168 C84.45185048 -0.01183659 87.70347778 -0.00800017 90.95516968 -0.00241089 C91.92868881 -0.00443512 92.90220795 -0.00645935 93.90522766 -0.00854492 C95.2260157 -0.00431519 95.2260157 -0.00431519 96.57348633 0 C97.34297419 0.00037703 98.11246204 0.00075405 98.90526772 0.0011425 C100.65975952 0.12698364 100.65975952 0.12698364 101.65975952 1.12698364 C101.75533988 2.56912363 101.78164347 4.01592444 101.78001404 5.46122742 C101.78207603 6.86424606 101.78207603 6.86424606 101.78417969 8.29560852 C101.77878677 9.84711357 101.77878677 9.84711357 101.77328491 11.42996216 C101.77343094 12.51275452 101.77357697 13.59554687 101.77372742 14.71115112 C101.77302775 18.30941738 101.76523285 21.90763262 101.75741577 25.50588989 C101.75555178 27.99310783 101.75412779 30.48032612 101.75312805 32.96754456 C101.74969302 38.85719555 101.7418023 44.74682754 101.73177856 50.63647074 C101.71952199 57.99723738 101.71413743 65.35800629 101.70858765 72.71878052 C101.69784767 85.85485791 101.68076945 98.99091895 101.65975952 112.12698364 C96.70975952 112.12698364 91.75975952 112.12698364 86.65975952 112.12698364 C86.65975952 111.46698364 86.65975952 110.80698364 86.65975952 110.12698364 C91.27975952 110.12698364 95.89975952 110.12698364 100.65975952 110.12698364 C100.65975952 74.48698364 100.65975952 38.84698364 100.65975952 2.12698364 C65.67975952 2.12698364 30.69975952 2.12698364 -5.34024048 2.12698364 C-5.34024048 6.41698364 -5.34024048 10.70698364 -5.34024048 15.12698364 C25.01975952 15.12698364 55.37975952 15.12698364 86.65975952 15.12698364 C86.65975952 15.78698364 86.65975952 16.44698364 86.65975952 17.12698364 C55.63975952 17.12698364 24.61975952 17.12698364 -7.34024048 17.12698364 C-7.34024048 11.84698364 -7.34024048 6.56698364 -7.34024048 1.12698364 C-4.54931845 0.1966763 -2.8817425 0.00141058 0 0 Z " fill="#DB7871" transform="translate(70.34024047851563,176.87301635742188)"/>
<path d="M0 0 C5.82071622 -0.02464638 11.64140234 -0.0428343 17.4621582 -0.05493164 C19.44393441 -0.05997267 21.42570689 -0.06680538 23.4074707 -0.07543945 C26.24952109 -0.08751515 29.09152247 -0.09323045 31.93359375 -0.09765625 C32.82525742 -0.10281754 33.71692108 -0.10797882 34.63560486 -0.11329651 C36.75740601 -0.11349177 38.8791078 -0.0621003 41 0 C42 1 42 1 42.1328125 3.25 C42.13023437 4.1575 42.12765625 5.065 42.125 6 C42.12886719 7.36125 42.12886719 7.36125 42.1328125 8.75 C42 11 42 11 41 12 C37.97022196 12.08871273 34.96332978 12.1151935 31.93359375 12.09765625 C31.02497086 12.0962413 30.11634796 12.09482635 29.18019104 12.09336853 C26.26592779 12.08775193 23.35174019 12.07519665 20.4375 12.0625 C18.46679798 12.05748714 16.49609476 12.05292386 14.52539062 12.04882812 C9.68356441 12.03777711 4.84179505 12.02050138 0 12 C0 8.04 0 4.08 0 0 Z " fill="#E55D57" transform="translate(470,175)"/>
<path d="M0 0 C9.9 0 19.8 0 30 0 C30 3.3 30 6.6 30 10 C27.36 10.33 24.72 10.66 22 11 C23.0209375 12.60875 23.0209375 12.60875 24.0625 14.25 C26 17.66303381 26 17.66303381 26 20.3125 C24.70147014 22.50376914 23.2707353 22.93559283 21 24 C20.67 24.99 20.34 25.98 20 27 C19.34 27 18.68 27 18 27 C18 27.66 18 28.32 18 29 C17.01 28.67 16.02 28.34 15 28 C14.96261719 27.443125 14.92523438 26.88625 14.88671875 26.3125 C14.40439364 20.71374576 13.16758121 16.18334636 11 11 C7.37 10.67 3.74 10.34 0 10 C0 6.7 0 3.4 0 0 Z " fill="#EF5650" transform="translate(385,199)"/>
<path d="M0 0 C10.56 0 21.12 0 32 0 C32 4.29 32 8.58 32 13 C30.02 13 28.04 13 26 13 C26.48210937 14.13695312 26.96421875 15.27390625 27.4609375 16.4453125 C35.35288368 35.5400029 35.35288368 35.5400029 35 45 C33.58203125 46.74609375 33.58203125 46.74609375 32 48 C31.690625 48.70125 31.38125 49.4025 31.0625 50.125 C30 52 30 52 27.93359375 52.6171875 C27.29550781 52.74351562 26.65742188 52.86984375 26 53 C25.75765625 52.38253906 25.5153125 51.76507813 25.265625 51.12890625 C24.93046875 50.28199219 24.5953125 49.43507812 24.25 48.5625 C23.71052734 47.19544922 23.71052734 47.19544922 23.16015625 45.80078125 C22.09400132 43.22693248 20.91061749 40.75163751 19.6875 38.25 C17.97214066 34.49222837 17.75402237 32.0494273 19 28 C19.66 28 20.32 28 21 28 C21.12375 27.071875 21.12375 27.071875 21.25 26.125 C22 24 22 24 24.0625 22.75 C24.701875 22.5025 25.34125 22.255 26 22 C25.39009109 18.44219804 24.4216319 15.3171411 23 12 C25.70879335 10.64560332 28.00933268 10.93498549 31 11 C31 7.7 31 4.4 31 1 C21.1 1 11.2 1 1 1 C1 4.3 1 7.6 1 11 C4.63 11 8.26 11 12 11 C12.33 12.65 12.66 14.3 13 16 C13.66 16.33 14.32 16.66 15 17 C15.703125 18.77734375 15.703125 18.77734375 16.25 20.9375 C16.44078125 21.64777344 16.6315625 22.35804688 16.828125 23.08984375 C16.88484375 23.72019531 16.9415625 24.35054687 17 25 C16.34 25.66 15.68 26.32 15 27 C13.35 22.71 11.7 18.42 10 14 C6.7 13.67 3.4 13.34 0 13 C0 8.71 0 4.42 0 0 Z " fill="#EE5650" transform="translate(384,198)"/>
<path d="M0 0 C2.475 0.495 2.475 0.495 5 1 C5.06058594 1.68707031 5.12117188 2.37414062 5.18359375 3.08203125 C5.30927734 4.43361328 5.30927734 4.43361328 5.4375 5.8125 C5.51871094 6.70582031 5.59992188 7.59914062 5.68359375 8.51953125 C5.93489767 11.12743559 5.93489767 11.12743559 7 14 C6.67 14.99 6.34 15.98 6 17 C6.33 17.99 6.66 18.98 7 20 C7.66 20.33 8.32 20.66 9 21 C8.34 22.32 7.68 23.64 7 25 C10.3 25 13.6 25 17 25 C17 25.33 17 25.66 17 26 C13.04 26 9.08 26 5 26 C4.67 24.68 4.34 23.36 4 22 C2.989375 22.61875 1.97875 23.2375 0.9375 23.875 C-5.32067862 27.42591825 -11.83043685 29.17352118 -18.99609375 27.546875 C-20.67654406 27.07350871 -22.34038637 26.54191465 -24 26 C-24 25.67 -24 25.34 -24 25 C-18.62374766 24.15111805 -14.34629602 23.9975695 -9 25 C-8.690625 24.21625 -8.38125 23.4325 -8.0625 22.625 C-7 20 -7 20 -6 18 C-7.37285156 18.01740234 -7.37285156 18.01740234 -8.7734375 18.03515625 C-10.55621094 18.04869141 -10.55621094 18.04869141 -12.375 18.0625 C-13.55835938 18.07410156 -14.74171875 18.08570313 -15.9609375 18.09765625 C-19 18 -19 18 -21 17 C-21 15.35 -21 13.7 -21 12 C-20.44828125 12.4846875 -19.8965625 12.969375 -19.328125 13.46875 C-15.18498885 16.19376573 -10.7730493 15.6837426 -6 15 C-2.74232674 13.88308346 -0.30010274 12.58915308 2 10 C2.95997049 7.14646135 3 5.06641172 3 2 C2.01 1.67 1.02 1.34 0 1 C0 0.67 0 0.34 0 0 Z " fill="#E8635E" transform="translate(319,235)"/>
<path d="M0 0 C4.67722651 3.90947443 6.77051732 8.05668242 8 14 C8.24699892 16.85831275 8.23470532 19.6913924 8.1953125 22.55859375 C8.1924826 23.34774673 8.18965271 24.13689972 8.18673706 24.94996643 C8.17563057 27.44597172 8.15054455 29.94160498 8.125 32.4375 C8.11495785 34.13996874 8.10583417 35.84244316 8.09765625 37.54492188 C8.0757226 41.69675576 8.04125977 45.84831502 8 50 C8.71027344 49.98839844 9.42054688 49.97679687 10.15234375 49.96484375 C11.07144531 49.95582031 11.99054688 49.94679687 12.9375 49.9375 C13.85402344 49.92589844 14.77054687 49.91429687 15.71484375 49.90234375 C18 50 18 50 19 51 C19.07226502 52.85287502 19.0838122 54.70833878 19.0625 56.5625 C19.05347656 57.57441406 19.04445313 58.58632813 19.03515625 59.62890625 C19.02355469 60.41136719 19.01195312 61.19382812 19 62 C18.34 62 17.68 62 17 62 C17 58.7 17 55.4 17 52 C15.535625 52.020625 14.07125 52.04125 12.5625 52.0625 C11.04167482 52.08392007 9.51928038 52.07179964 8 52 C6.09218886 50.09218886 6.79336453 46.60238115 6.75390625 44 C6.72092184 42.54035962 6.68771109 41.08072435 6.65429688 39.62109375 C6.60721859 37.32181944 6.56288944 35.02255847 6.52319336 32.72314453 C6.37617989 24.6083529 6.19374522 16.87412733 4 9 C3.84990479 8.28972656 3.69980957 7.57945312 3.54516602 6.84765625 C3.15982901 4.84283884 3.15982901 4.84283884 1.25 3.75 C-1.28737029 2.9042099 -3.34234296 2.85235239 -6 3 C-6 2.34 -6 1.68 -6 1 C-6.66 1 -7.32 1 -8 1 C-8 0.34 -8 -0.32 -8 -1 C-20.84665339 -0.72472634 -20.84665339 -0.72472634 -33 3 C-33.77251565 5.04021214 -33.77251565 5.04021214 -34 7 C-35.32 7.33 -36.64 7.66 -38 8 C-38.33 9.32 -38.66 10.64 -39 12 C-35.7 12.66 -32.4 13.32 -29 14 C-29.33 14.66 -29.66 15.32 -30 16 C-31.58367747 15.85795259 -33.16693318 15.71119847 -34.75 15.5625 C-35.63171875 15.48128906 -36.5134375 15.40007812 -37.421875 15.31640625 C-39.69350452 15.03761535 -41.79851823 14.61209423 -44 14 C-42.98521288 8.03144941 -38.20570486 3.69669605 -33.5625 0.125 C-23.68167116 -4.21292486 -9.66519135 -5.61652804 0 0 Z " fill="#E68882" transform="translate(328,199)"/>
<path d="M0 0 C0.61875 0.59748047 0.61875 0.59748047 1.25 1.20703125 C5.91820115 5.489689 10.53328637 8.87382165 17.07421875 9.05859375 C21.56544656 8.65652193 25.1238076 7.22881063 29 5 C29 6.65 29 8.3 29 10 C26.11832319 10.80652508 23.43968453 11.17515006 20.453125 11.31640625 C19.60878906 11.35830078 18.76445312 11.40019531 17.89453125 11.44335938 C16.58548828 11.50233398 16.58548828 11.50233398 15.25 11.5625 C14.36183594 11.60568359 13.47367187 11.64886719 12.55859375 11.69335938 C10.37254037 11.79913615 8.18637911 11.90122546 6 12 C6.33 12.99 6.66 13.98 7 15 C6 18 6 18 3.4375 19.5625 C-0.59096243 20.0752134 -1.20919162 19.56109635 -4.375 17.25 C-6.4609375 15.578125 -6.4609375 15.578125 -8 14 C-8 13.34 -8 12.68 -8 12 C-8.66 12 -9.32 12 -10 12 C-8.60147088 9.20294175 -6.86348142 9.09085007 -4 8 C-0.68539295 6.29107501 -0.68539295 6.29107501 -0.3125 2.875 C-0.1578125 1.451875 -0.1578125 1.451875 0 0 Z " fill="#EE5D57" transform="translate(474,240)"/>
<path d="M0 0 C2.375 1.625 2.375 1.625 4 4 C4.33094958 7.77282526 4.19754817 10.40735548 3 14 C-0.75047482 16.50031654 -2.55856266 16.53603554 -7 16 C-10.38677089 13.54999553 -11.78698584 12.13607554 -12.5625 8 C-11.87642343 4.34092496 -10.57265686 2.64832324 -8 0 C-5.02898609 -1.48550695 -3.16565278 -0.82306972 0 0 Z " fill="#E35E58" transform="translate(370,170)"/>
<path d="M0 0 C0.99 0.33 1.98 0.66 3 1 C2.67 5.29 2.34 9.58 2 14 C32.36 14 62.72 14 94 14 C94 14.66 94 15.32 94 16 C62.98 16 31.96 16 0 16 C0 10.72 0 5.44 0 0 Z " fill="#E49E90" transform="translate(63,178)"/>
<path d="M0 0 C6.96003447 -0.02526838 13.9200572 -0.04283222 20.88012695 -0.05493164 C23.24992312 -0.05997341 25.61971615 -0.06680665 27.98950195 -0.07543945 C31.38754039 -0.0875119 34.78553785 -0.09322971 38.18359375 -0.09765625 C39.25024765 -0.10281754 40.31690155 -0.10797882 41.4158783 -0.11329651 C42.88729027 -0.11340981 42.88729027 -0.11340981 44.38842773 -0.11352539 C45.25668686 -0.115746 46.12494598 -0.11796661 47.01951599 -0.12025452 C49 0 49 0 50 1 C50.09376053 2.81055025 50.1174411 4.62477201 50.11352539 6.43774414 C50.11344986 7.59887222 50.11337433 8.76000031 50.11329651 9.95631409 C50.10813522 11.219832 50.10297394 12.48334991 50.09765625 13.78515625 C50.0962413 15.07111191 50.09482635 16.35706757 50.09336853 17.68199158 C50.08954418 21.10643443 50.07971462 24.53083509 50.06866455 27.95526123 C50.05844864 31.44738189 50.05387053 34.93950934 50.04882812 38.43164062 C50.03809227 45.28777778 50.02101684 52.14388687 50 59 C49.01 58.67 48.02 58.34 47 58 C46.67 39.85 46.34 21.7 46 3 C45.34 3 44.68 3 44 3 C44 2.34 44 1.68 44 1 C43.29278809 1.74020386 43.29278809 1.74020386 42.57128906 2.49536133 C38.71599413 4.75136044 35.23507679 4.26556221 30.859375 4.07421875 C29.97719299 4.04777786 29.09501099 4.02133698 28.18609619 3.99409485 C25.37336665 3.90644813 22.561945 3.79725904 19.75 3.6875 C17.84119244 3.62422908 15.93233774 3.56236343 14.0234375 3.50195312 C9.34825543 3.35092593 4.67413023 3.18057702 0 3 C0 2.01 0 1.02 0 0 Z " fill="#EF9D94" transform="translate(72,228)"/>
<path d="M0 0 C10.56 0 21.12 0 32 0 C32 4.29 32 8.58 32 13 C30.02 13 28.04 13 26 13 C26.2172876 13.52956299 26.4345752 14.05912598 26.65844727 14.60473633 C27.63628753 17.00345553 28.59951221 19.40778193 29.5625 21.8125 C29.90474609 22.64587891 30.24699219 23.47925781 30.59960938 24.33789062 C30.91865234 25.14033203 31.23769531 25.94277344 31.56640625 26.76953125 C32.01415405 27.87711792 32.01415405 27.87711792 32.47094727 29.00708008 C33 31 33 31 32 34 C28.8335108 31.44921703 28.3183167 29.03148804 27.5 25.125 C26.5905491 20.80510824 25.34091995 17.7324668 23 14 C23 13.34 23 12.68 23 12 C25.70879335 10.64560332 28.00933268 10.93498549 31 11 C31 7.7 31 4.4 31 1 C21.1 1 11.2 1 1 1 C1 4.3 1 7.6 1 11 C4.63 11 8.26 11 12 11 C12.33 12.65 12.66 14.3 13 16 C13.66 16.33 14.32 16.66 15 17 C15.703125 18.77734375 15.703125 18.77734375 16.25 20.9375 C16.44078125 21.64777344 16.6315625 22.35804688 16.828125 23.08984375 C16.88484375 23.72019531 16.9415625 24.35054687 17 25 C16.34 25.66 15.68 26.32 15 27 C13.35 22.71 11.7 18.42 10 14 C6.7 13.67 3.4 13.34 0 13 C0 8.71 0 4.42 0 0 Z " fill="#D66460" transform="translate(384,198)"/>
<path d="M0 0 C0.928125 0.20625 1.85625 0.4125 2.8125 0.625 C2.4825 1.615 2.1525 2.605 1.8125 3.625 C6.7625 3.955 11.7125 4.285 16.8125 4.625 C16.1525 6.275 15.4925 7.925 14.8125 9.625 C15.1425 10.285 15.4725 10.945 15.8125 11.625 C11.77215637 12.32429024 8.74328151 12.76619463 4.8125 11.625 C2.81286972 11.58654557 0.81198367 11.57955719 -1.1875 11.625 C-1.5175 8.985 -1.8475 6.345 -2.1875 3.625 C-3.8375 4.285 -5.4875 4.945 -7.1875 5.625 C-6.875 3.75 -6.875 3.75 -6.1875 1.625 C-3.1875 -0.375 -3.1875 -0.375 0 0 Z " fill="#EF554E" transform="translate(296.1875,248.375)"/>
<path d="M0 0 C0.33 0 0.66 0 1 0 C3.79984966 8.88592287 4.50037652 17.37232028 4.44604492 26.60766602 C4.43754863 28.79995294 4.46638503 30.98960982 4.49804688 33.18164062 C4.55744087 45.31077932 1.87598284 55.51362995 -2 67 C-2.66 67 -3.32 67 -4 67 C-4.33 65.02 -4.66 63.04 -5 61 C-4.34 61 -3.68 61 -3 61 C-3.33 59.68 -3.66 58.36 -4 57 C-2.02 56.505 -2.02 56.505 0 56 C0 53.03 0 50.06 0 47 C0.66 47 1.32 47 2 47 C2.02494208 42.60750699 2.04297329 38.21505283 2.05493164 33.82250977 C2.05992328 32.33194255 2.06671894 30.84138014 2.07543945 29.35083008 C2.23916626 17.62868669 2.23916626 17.62868669 1 6 C0.34 5.67 -0.32 5.34 -1 5 C-0.67 3.35 -0.34 1.7 0 0 Z " fill="#DF7470" transform="translate(221,193)"/>
<path d="M0 0 C5.82922361 2.27481897 9.37078328 6.04107027 13 11 C13.33 11.99 13.66 12.98 14 14 C13.34 14 12.68 14 12 14 C11 13 10 12 9 11 C8.34 11 7.68 11 7 11 C7 9.68 7 8.36 7 7 C5.01508358 7.26676204 5.01508358 7.26676204 3 8 C2.67 8.99 2.34 9.98 2 11 C1.34 11 0.68 11 0 11 C-0.33 12.65 -0.66 14.3 -1 16 C-1.66 16 -2.32 16 -3 16 C-3 15.34 -3 14.68 -3 14 C-4.1446875 13.566875 -4.1446875 13.566875 -5.3125 13.125 C-8 12 -8 12 -11 10 C-9.88625 10.061875 -8.7725 10.12375 -7.625 10.1875 C-6.42875 10.125625 -5.2325 10.06375 -4 10 C-3.34 9.01 -2.68 8.02 -2 7 C-1.01 6.34 -0.02 5.68 1 5 C0.67 3.35 0.34 1.7 0 0 Z " fill="#E8716E" transform="translate(506,200)"/>
<path d="M0 0 C0.66 0 1.32 0 2 0 C2.02687279 1.81242052 2.04633715 3.62495233 2.0625 5.4375 C2.07410156 6.44683594 2.08570313 7.45617187 2.09765625 8.49609375 C2 11 2 11 1 12 C-0.85287502 12.07226502 -2.70833878 12.0838122 -4.5625 12.0625 C-5.57441406 12.05347656 -6.58632813 12.04445312 -7.62890625 12.03515625 C-8.41136719 12.02355469 -9.19382812 12.01195312 -10 12 C-9.88189912 16.9480849 -9.7576616 21.89596276 -9.62768555 26.84375 C-9.58432183 28.52762642 -9.5426478 30.21154723 -9.50268555 31.89550781 C-9.44501766 34.31328724 -9.3813135 36.73084295 -9.31640625 39.1484375 C-9.29969376 39.9036972 -9.28298126 40.65895691 -9.26576233 41.43710327 C-9.22444893 45.34739799 -9.22444893 45.34739799 -8 49 C-7.36191406 48.98839844 -6.72382813 48.97679687 -6.06640625 48.96484375 C-5.24011719 48.95582031 -4.41382813 48.94679687 -3.5625 48.9375 C-2.73878906 48.92589844 -1.91507812 48.91429687 -1.06640625 48.90234375 C1 49 1 49 2 50 C2.07226502 51.85287502 2.0838122 53.70833878 2.0625 55.5625 C2.05347656 56.57441406 2.04445313 57.58632813 2.03515625 58.62890625 C2.02355469 59.41136719 2.01195312 60.19382812 2 61 C1.67 61 1.34 61 1 61 C0.67 58.03 0.34 55.06 0 52 C-2.27864583 51.77213542 -4.55729167 51.54427083 -6.8359375 51.31640625 C-9 51 -9 51 -11 50 C-11 37.13 -11 24.26 -11 11 C-7.37 11 -3.74 11 0 11 C0 7.37 0 3.74 0 0 Z " fill="#E6A09D" transform="translate(274,199)"/>
<path d="M0 0 C2.375 0.9375 2.375 0.9375 3.8125 2.6875 C4.56512673 5.6980069 3.67879016 7.1850541 2.375 9.9375 C2.375 10.5975 2.375 11.2575 2.375 11.9375 C-1.57227588 12.11692163 -4.2230513 12.03100689 -7.625 9.9375 C-7.14122419 3.5274705 -7.14122419 3.5274705 -4.875 0.9375 C-2.625 -0.0625 -2.625 -0.0625 0 0 Z " fill="#EE554F" transform="translate(366.625,171.0625)"/>
<path d="M0 0 C0.763125 0.226875 1.52625 0.45375 2.3125 0.6875 C2.3125 2.0075 2.3125 3.3275 2.3125 4.6875 C1.3225 4.6875 0.3325 4.6875 -0.6875 4.6875 C-1.0175 6.0075 -1.3475 7.3275 -1.6875 8.6875 C-9.21485642 11.1454123 -15.16014358 11.1454123 -22.6875 8.6875 C-22.6875 8.3575 -22.6875 8.0275 -22.6875 7.6875 C-17.31124766 6.83861805 -13.03379602 6.6850695 -7.6875 7.6875 C-7.419375 6.924375 -7.15125 6.16125 -6.875 5.375 C-4.28009259 -0.49768519 -4.28009259 -0.49768519 0 0 Z " fill="#EC5652" transform="translate(317.6875,252.3125)"/>
<path d="M0 0 C3.3 0 6.6 0 10 0 C10 0.66 10 1.32 10 2 C10.67546875 1.98839844 11.3509375 1.97679687 12.046875 1.96484375 C13.38492188 1.95130859 13.38492188 1.95130859 14.75 1.9375 C16.07257813 1.92009766 16.07257813 1.92009766 17.421875 1.90234375 C20 2 20 2 21.74023438 2.5 C24.77118565 3.17063399 27.63100905 3.1112675 30.734375 3.09765625 C32.67763672 3.09282227 32.67763672 3.09282227 34.66015625 3.08789062 C36.02343817 3.07953598 37.38671942 3.07107104 38.75 3.0625 C40.12890465 3.05748168 41.50781104 3.05291935 42.88671875 3.04882812 C46.25785659 3.03704093 49.62890628 3.02058635 53 3 C53 3.33 53 3.66 53 4 C46.06830441 5.05666091 39.25485887 5.18346494 32.25 5.1875 C31.1465625 5.19974609 30.043125 5.21199219 28.90625 5.22460938 C18.96997386 5.24210282 9.47913633 4.01608883 0 1 C0 0.67 0 0.34 0 0 Z " fill="#E07672" transform="translate(97,313)"/>
<path d="M0 0 C0.33 0.99 0.66 1.98 1 3 C-2.96 3 -6.92 3 -11 3 C-10.67 5.64 -10.34 8.28 -10 11 C-3.4 11.33 3.2 11.66 10 12 C9.67 12.66 9.34 13.32 9 14 C2.07 14 -4.86 14 -12 14 C-12 9.71 -12 5.42 -12 1 C-6.06 0.505 -6.06 0.505 0 0 Z " fill="#E0928F" transform="translate(407,276)"/>
<path d="M0 0 C0 0.66 0 1.32 0 2 C2.64 2.33 5.28 2.66 8 3 C8.33 4.32 8.66 5.64 9 7 C7.25093341 7.19601608 5.50068154 7.38147403 3.75 7.5625 C2.77546875 7.66691406 1.8009375 7.77132813 0.796875 7.87890625 C-1.7631352 7.98974468 -3.58148159 7.77738092 -6 7 C-6 5.02 -6 3.04 -6 1 C-4 0 -4 0 0 0 Z M-8 7 C-6 8 -6 8 -6 8 Z " fill="#EE554F" transform="translate(486,251)"/>
<path d="M0 0 C0.99 0.33 1.98 0.66 3 1 C2.67 1.99 2.34 2.98 2 4 C2.20625 4.99 2.4125 5.98 2.625 7 C3 10 3 10 1.5625 11.875 C1.046875 12.24625 0.53125 12.6175 0 13 C-0.66 12.01 -1.32 11.02 -2 10 C-2.33 10 -2.66 10 -3 10 C-3 11.65 -3 13.3 -3 15 C-2.34 15 -1.68 15 -1 15 C-1.33 16.65 -1.66 18.3 -2 20 C-2.66666667 18.66666667 -3.33333333 17.33333333 -4 16 C-4.5878125 15.071875 -4.5878125 15.071875 -5.1875 14.125 C-6.31404258 11.17865786 -5.68658228 9.02096204 -5 6 C-4.34 6 -3.68 6 -3 6 C-2.87625 5.38125 -2.7525 4.7625 -2.625 4.125 C-2 2 -2 2 0 0 Z " fill="#F05452" transform="translate(408,220)"/>
<path d="M0 0 C2.375 -0.1875 2.375 -0.1875 5 0 C5.66 0.99 6.32 1.98 7 3 C7.99 3.66 8.98 4.32 10 5 C10 5.66 10 6.32 10 7 C8.02 7.66 6.04 8.32 4 9 C4 8.34 4 7.68 4 7 C3.34 7 2.68 7 2 7 C1.67 8.32 1.34 9.64 1 11 C-0.32 11 -1.64 11 -3 11 C-2.67 8.69 -2.34 6.38 -2 4 C-1.34 4 -0.68 4 0 4 C0 2.68 0 1.36 0 0 Z " fill="#EC5850" transform="translate(508,207)"/>
<path d="M0 0 C0.33 0 0.66 0 1 0 C1 10.23 1 20.46 1 31 C4.3 31 7.6 31 11 31 C12 32 12 32 12.09765625 34.50390625 C12.08605469 35.51324219 12.07445312 36.52257812 12.0625 37.5625 C12.05347656 38.57441406 12.04445313 39.58632813 12.03515625 40.62890625 C12.02355469 41.41136719 12.01195312 42.19382812 12 43 C11.34 43 10.68 43 10 43 C10 39.7 10 36.4 10 33 C7.8034375 33.0309375 7.8034375 33.0309375 5.5625 33.0625 C4.04167482 33.08392007 2.51928038 33.07179964 1 33 C0 32 0 32 -0.11352539 28.94897461 C-0.11336634 27.60008729 -0.10767612 26.25119386 -0.09765625 24.90234375 C-0.0962413 24.19348526 -0.09482635 23.48462677 -0.09336853 22.75428772 C-0.08775443 20.48198288 -0.07519963 18.20977525 -0.0625 15.9375 C-0.05748681 14.40039204 -0.05292359 12.86328255 -0.04882812 11.32617188 C-0.03778042 7.55074358 -0.02050641 3.77538829 0 0 Z " fill="#D6706B" transform="translate(335,218)"/>
<path d="M0 0 C4.58795425 6.88193137 4.77334513 13.96273449 4 22 C3.02271753 25.83998255 1.83913846 29.4828155 0 33 C-0.99 33.495 -0.99 33.495 -2 34 C-1.67 31.69 -1.34 29.38 -1 27 C-0.34 27 0.32 27 1 27 C1.12224626 17.9401941 0.83930594 9.02253886 0 0 Z " fill="#E47F80" transform="translate(520,214)"/>
<path d="M0 0 C0.99 0 1.98 0 3 0 C6.75885259 5.63827888 5.19154204 12.52870605 4 18.9375 C3.814375 19.83339844 3.62875 20.72929687 3.4375 21.65234375 C2.90839898 24.09352535 2.90839898 24.09352535 3 27 C1.02 27 -0.96 27 -3 27 C-1.48632812 24.4609375 -1.48632812 24.4609375 0.02734375 21.921875 C2.97406247 16.09944282 2.76747656 9.10486501 1 2.9375 C0.67 1.968125 0.34 0.99875 0 0 Z " fill="#E17B79" transform="translate(506,218)"/>
<path d="M0 0 C0.33 0 0.66 0 1 0 C0.67 5.94 0.34 11.88 0 18 C-0.33 18 -0.66 18 -1 18 C-1.33 27.24 -1.66 36.48 -2 46 C-2.33 46 -2.66 46 -3 46 C-3.07524167 41.53836194 -3.12910583 37.07707883 -3.16479492 32.61499023 C-3.17970277 31.10320589 -3.20003634 29.59146337 -3.22631836 28.07983398 C-3.39315241 18.22353991 -2.77209443 9.53721326 0 0 Z " fill="#E1807C" transform="translate(35,193)"/>
<path d="M0 0 C0 6.93 0 13.86 0 21 C-0.66 21 -1.32 21 -2 21 C-2 15.72 -2 10.44 -2 5 C-2.99 5 -3.98 5 -5 5 C-5 5.99 -5 6.98 -5 8 C-6.32 7.67 -7.64 7.34 -9 7 C-7.88121617 5.82737096 -6.75476949 4.66204862 -5.625 3.5 C-4.68527344 2.52546875 -4.68527344 2.52546875 -3.7265625 1.53125 C-2 0 -2 0 0 0 Z " fill="#E1726E" transform="translate(264,177)"/>
<path d="M0 0 C-0.43645273 4.94646432 -2.85857272 7.30882294 -6 11 C-6.85279338 13.21735439 -6.85279338 13.21735439 -7 15 C-8.98 15.33 -10.96 15.66 -13 16 C-4.80045351 0 -4.80045351 0 0 0 Z " fill="#E67F7C" transform="translate(59,156)"/>
<path d="M0 0 C0.99 0.33 1.98 0.66 3 1 C4.92498396 5.37496355 4.61007889 11.07590503 3.1875 15.5625 C2.795625 16.366875 2.40375 17.17125 2 18 C1.45356684 19.26879113 0.91210762 20.53973312 0.375 21.8125 C-0.305625 23.3903125 -0.305625 23.3903125 -1 25 C-1.66 25 -2.32 25 -3 25 C-2.50154426 20.14005655 -0.9280321 16.44475274 1.2578125 12.1484375 C2.13898814 9.5976659 1.85085075 8.51688784 1 6 C0.65421232 4.00211562 0.31856451 2.00240549 0 0 Z " fill="#E37574" transform="translate(411,251)"/>
<path d="M0 0 C1.65 0 3.3 0 5 0 C3.25819174 3.48361653 -0.70462789 4.46384782 -4.125 6.0625 C-5.24648437 6.60874023 -5.24648437 6.60874023 -6.390625 7.16601562 C-10.98731036 9.33222362 -14.93248771 10.56314549 -20 11 C-16.93882432 8.37613513 -16.26826873 8 -12 8 C-12 7.34 -12 6.68 -12 6 C-10.68 6 -9.36 6 -8 6 C-8 5.34 -8 4.68 -8 4 C-6.68 4 -5.36 4 -4 4 C-4 3.34 -4 2.68 -4 2 C-2.68 2 -1.36 2 0 2 C0 1.34 0 0.68 0 0 Z " fill="#E3827F" transform="translate(176,303)"/>
<path d="M0 0 C0.99 0 1.98 0 3 0 C3.125 5.75 3.125 5.75 2 8 C1.34 8 0.68 8 0 8 C-0.66 7.34 -1.32 6.68 -2 6 C-2.66 6.66 -3.32 7.32 -4 8 C-5.32 8 -6.64 8 -8 8 C-8 6.35 -8 4.7 -8 3 C-5.36 3 -2.72 3 0 3 C0 2.01 0 1.02 0 0 Z " fill="#F4534F" transform="translate(378,251)"/>
<path d="M0 0 C2.97 0 5.94 0 9 0 C9 0.33 9 0.66 9 1 C7.02 1 5.04 1 3 1 C3.2172876 1.52956299 3.4345752 2.05912598 3.65844727 2.60473633 C4.63628753 5.00345553 5.59951221 7.40778193 6.5625 9.8125 C6.90474609 10.64587891 7.24699219 11.47925781 7.59960938 12.33789062 C7.91865234 13.14033203 8.23769531 13.94277344 8.56640625 14.76953125 C8.86490479 15.50792236 9.16340332 16.24631348 9.47094727 17.00708008 C10 19 10 19 9 22 C5.8335108 19.44921703 5.3183167 17.03148804 4.5 13.125 C3.5905491 8.80510824 2.34091995 5.7324668 0 2 C0 1.34 0 0.68 0 0 Z " fill="#E27977" transform="translate(407,210)"/>
<path d="M0 0 C2.64 0 5.28 0 8 0 C8 0.33 8 0.66 8 1 C5.69 1 3.38 1 1 1 C1 4.3 1 7.6 1 11 C6.445 10.505 6.445 10.505 12 10 C12 11.65 12 13.3 12 15 C12.66 15 13.32 15 14 15 C14 15.99 14 16.98 14 18 C13.34 18 12.68 18 12 18 C12 17.34 12 16.68 12 16 C11.01 16 10.02 16 9 16 C9 14.68 9 13.36 9 12 C6.03 12 3.06 12 0 12 C0 8.04 0 4.08 0 0 Z " fill="#DE6360" transform="translate(242,198)"/>
<path d="M0 0 C1.65 0 3.3 0 5 0 C5.103125 0.61875 5.20625 1.2375 5.3125 1.875 C5.87525373 4.36526484 5.87525373 4.36526484 9 6 C9 6.66 9 7.32 9 8 C7.906875 7.814375 6.81375 7.62875 5.6875 7.4375 C2.06375867 6.7421932 2.06375867 6.7421932 -1 8 C-0.67 5.36 -0.34 2.72 0 0 Z " fill="#EF5550" transform="translate(469,204)"/>
<path d="M0 0 C1.08796875 0.08378906 2.1759375 0.16757812 3.296875 0.25390625 C11.98802137 0.87335733 20.31860832 1.08726485 29 0 C21.73656649 4.842289 14.32227081 4.27048672 6 3 C2.25 1.9375 2.25 1.9375 0 1 C0 0.67 0 0.34 0 0 Z " fill="#E38F8D" transform="translate(476,260)"/>
<path d="M0 0 C1 2 1 2 0 7 C3.3 7.66 6.6 8.32 10 9 C9.67 9.66 9.34 10.32 9 11 C7.41632253 10.85795259 5.83306682 10.71119847 4.25 10.5625 C3.36828125 10.48128906 2.4865625 10.40007812 1.578125 10.31640625 C-0.69350452 10.03761535 -2.79851823 9.61209423 -5 9 C-4.42647107 5.12867972 -2.51295648 2.91827204 0 0 Z " fill="#E38A88" transform="translate(289,204)"/>
<path d="M0 0 C0.5465625 0.48984375 1.093125 0.9796875 1.65625 1.484375 C4.51481017 3.33291058 6.12791828 3.34263961 9.5 3.25 C10.4384375 3.23453125 11.376875 3.2190625 12.34375 3.203125 C14.69145284 3.02359478 16.7467689 2.65896381 19 2 C17.25 5.875 17.25 5.875 15 7 C12.83063928 6.93720272 10.66303451 6.80206256 8.5 6.625 C7.3346875 6.53476563 6.169375 6.44453125 4.96875 6.3515625 C2 6 2 6 0 5 C0 3.35 0 1.7 0 0 Z " fill="#DF6663" transform="translate(298,247)"/>
<path d="M0 0 C7.57142857 3 7.57142857 3 10 6 C9.34 7.32 8.68 8.64 8 10 C8.66 10.33 9.32 10.66 10 11 C9.34 11.66 8.68 12.32 8 13 C6.66094733 11.2126038 5.32890934 9.41995047 4 7.625 C3.2575 6.62726563 2.515 5.62953125 1.75 4.6015625 C0 2 0 2 0 0 Z " fill="#E56C65" transform="translate(45,271)"/>
<path d="M0 0 C0 1.32 0 2.64 0 4 C0.66 4.33 1.32 4.66 2 5 C2.703125 6.77734375 2.703125 6.77734375 3.25 8.9375 C3.44078125 9.64777344 3.6315625 10.35804688 3.828125 11.08984375 C3.88484375 11.72019531 3.9415625 12.35054687 4 13 C3.34 13.66 2.68 14.32 2 15 C0.35 10.71 -1.3 6.42 -3 2 C-6.3 1.67 -9.6 1.34 -13 1 C-13 0.67 -13 0.34 -13 0 C-11.39679026 -0.19551338 -9.79237014 -0.38111983 -8.1875 -0.5625 C-7.29417969 -0.66691406 -6.40085937 -0.77132812 -5.48046875 -0.87890625 C-3 -1 -3 -1 0 0 Z " fill="#EA9D99" transform="translate(397,210)"/>
<path d="M0 0 C3.18982177 0.75490994 5.95165486 1.7599952 9 3 C8.01 3.66 7.02 4.32 6 5 C6 4.34 6 3.68 6 3 C-1.26 2.67 -8.52 2.34 -16 2 C-11.11599504 -1.25600331 -5.71521529 -0.45484412 0 0 Z " fill="#E78685" transform="translate(497,196)"/>
<path d="M0 0 C0 0.66 0 1.32 0 2 C-0.95712891 2.25523437 -0.95712891 2.25523437 -1.93359375 2.515625 C-2.75988281 2.75796875 -3.58617187 3.0003125 -4.4375 3.25 C-5.26121094 3.48203125 -6.08492188 3.7140625 -6.93359375 3.953125 C-9.19995468 4.80770679 -9.19995468 4.80770679 -9.78515625 7.109375 C-9.85605469 7.73328125 -9.92695313 8.3571875 -10 9 C-11.32 9.33 -12.64 9.66 -14 10 C-13.875 7.75 -13.875 7.75 -13 5 C-8.88308129 1.63161196 -5.31139455 0 0 0 Z " fill="#E17671" transform="translate(304,197)"/>
<path d="M0 0 C8.85406634 -0.38558031 16.51168642 0.43056454 25 3 C25 3.33 25 3.66 25 4 C16.39235455 4.46112386 8.38520694 2.72848437 0 1 C0 0.67 0 0.34 0 0 Z " fill="#DE7873" transform="translate(133,127)"/>
<path d="M0 0 C2.73991094 0.32234246 5.43600938 0.3284637 8.19140625 0.2578125 C2.13034224 3.39284561 -3.09671536 4.15956169 -9.74609375 2.2578125 C-10.75671875 1.9278125 -11.76734375 1.5978125 -12.80859375 1.2578125 C-12.80859375 0.9278125 -12.80859375 0.5978125 -12.80859375 0.2578125 C-8.28280475 -0.78660035 -4.53496709 -0.59852358 0 0 Z " fill="#E7857E" transform="translate(307.80859375,259.7421875)"/>
<path d="M0 0 C0.33 0.66 0.66 1.32 1 2 C0.0625 4.625 0.0625 4.625 -1 7 C-0.34 7.33 0.32 7.66 1 8 C-0.375 10.5 -0.375 10.5 -2 13 C-2.66 13 -3.32 13 -4 13 C-4.63019694 4.80743982 -4.63019694 4.80743982 -2 1.4375 C-1.34 0.963125 -0.68 0.48875 0 0 Z " fill="#E57675" transform="translate(254,185)"/>
<path d="M0 0 C0.625 1.8125 0.625 1.8125 1 4 C0.01 5.485 0.01 5.485 -1 7 C-1.54318537 12.34899492 -1.10559488 17.74842433 0 23 C-3.15447991 19.84552009 -3.70875217 16.74033545 -4.078125 12.45703125 C-3.95040952 8.44037943 -2.95494722 2.95494722 0 0 Z " fill="#E38F8C" transform="translate(287,230)"/>
<path d="M0 0 C0.66 2.31 1.32 4.62 2 7 C-2 7 -2 7 -4.75 4.5 C-5.4925 3.675 -6.235 2.85 -7 2 C-4.35261084 0.5393715 -3.10551666 0 0 0 Z " fill="#EB7472" transform="translate(294,252)"/>
<path d="M0 0 C0.33 0.66 0.66 1.32 1 2 C4.96 2 8.92 2 13 2 C13 2.66 13 3.32 13 4 C9.2794164 6.48038907 7.40203429 6.46337203 3 6 C0.5625 4 0.5625 4 -1 2 C-0.67 1.34 -0.34 0.68 0 0 Z " fill="#E68686" transform="translate(360,180)"/>
<path d="M0 0 C4.03521092 0.63662308 6.89325919 2.69561876 10.25 4.9375 C11.32765625 5.64777344 12.4053125 6.35804688 13.515625 7.08984375 C14.33546875 7.72019531 15.1553125 8.35054687 16 9 C16 9.66 16 10.32 16 11 C14.0625 10.6875 14.0625 10.6875 12 10 C11.67 9.01 11.34 8.02 11 7 C10.21625 6.855625 9.4325 6.71125 8.625 6.5625 C6 6 6 6 4 5 C4 4.34 4 3.68 4 3 C2.68 2.67 1.36 2.34 0 2 C0 1.34 0 0.68 0 0 Z " fill="#E38A88" transform="translate(176,139)"/>
<path d="M0 0 C0.99 0.33 1.98 0.66 3 1 C3 2.32 3 3.64 3 5 C2.34 5 1.68 5 1 5 C0.67 5.99 0.34 6.98 0 8 C-0.66 8 -1.32 8 -2 8 C-2 8.66 -2 9.32 -2 10 C-3.32 10.33 -4.64 10.66 -6 11 C-6 10.34 -6 9.68 -6 9 C-5.34 9 -4.68 9 -4 9 C-4 8.01 -4 7.02 -4 6 C-3.01 6 -2.02 6 -1 6 C-1.020625 5.195625 -1.04125 4.39125 -1.0625 3.5625 C-1 1 -1 1 0 0 Z " fill="#E77C75" transform="translate(514,247)"/>
<path d="M0 0 C0.33 0.99 0.66 1.98 1 3 C1.66 3 2.32 3 3 3 C3.99 7.29 4.98 11.58 6 16 C5.34 16 4.68 16 4 16 C1.18150494 10.45108785 -0.5326514 6.258654 0 0 Z " fill="#E37C78" transform="translate(458,233)"/>
<path d="M0 0 C0.66 0.33 1.32 0.66 2 1 C1.38473563 3.48196453 0.75837346 5.9601563 0.125 8.4375 C-0.04902344 9.14455078 -0.22304688 9.85160156 -0.40234375 10.58007812 C-0.87351608 12.40368957 -1.43123057 14.20443229 -2 16 C-2.66 16.33 -3.32 16.66 -4 17 C-4.48736475 10.29873464 -3.07708804 5.93438408 0 0 Z " fill="#E37D7A" transform="translate(462,210)"/>
<path d="M0 0 C3.72357462 3.19163538 6.71201844 7.22140176 8 12 C7.1015625 14.25 7.1015625 14.25 6 16 C5.71125 15.071875 5.4225 14.14375 5.125 13.1875 C4.1125 9.90208333 4.1125 9.90208333 2 7 C0 4 0 4 0 0 Z " fill="#E5807E" transform="translate(210,171)"/>
<path d="M0 0 C0.33 0.66 0.66 1.32 1 2 C3.80980673 2.69227032 3.80980673 2.69227032 7.0625 3.125 C8.71958984 3.37636719 8.71958984 3.37636719 10.41015625 3.6328125 C11.26480469 3.75398438 12.11945313 3.87515625 13 4 C12.67 4.66 12.34 5.32 12 6 C6.1977825 6.36263859 2.36000789 5.25684543 -3 3 C-3 2.34 -3 1.68 -3 1 C-2.01 0.67 -1.02 0.34 0 0 Z " fill="#E5817D" transform="translate(257,257)"/>
<path d="M0 0 C0.66 1.32 1.32 2.64 2 4 C2.99 4 3.98 4 5 4 C5 4.99 5 5.98 5 7 C7.97 7.495 7.97 7.495 11 8 C10.67 8.99 10.34 9.98 10 11 C6.01328937 9.63312778 3.11505367 7.84804907 0 5 C0 4.34 0 3.68 0 3 C-0.66 3 -1.32 3 -2 3 C-1 1 -1 1 0 0 Z " fill="#E87F7E" transform="translate(466,249)"/>
<path d="M0 0 C0.66 0.66 1.32 1.32 2 2 C-1 3 -1 3 -3.5 2.4375 C-6.2399734 1.66177482 -6.2399734 1.66177482 -9 4 C-10.2188121 7.55672179 -10.2188121 7.55672179 -11 11 C-11.33 11 -11.66 11 -12 11 C-12.35671933 7.16526716 -12.29771416 5.44657125 -10.125 2.1875 C-6.59232348 -1.44907877 -4.8330572 -1.10757561 0 0 Z " fill="#E38787" transform="translate(370,170)"/>
<path d="M0 0 C0 1.65 0 3.3 0 5 C-3.15506142 5.93619813 -5.96586502 6.1057123 -9.25 6.0625 C-10.14203125 6.05347656 -11.0340625 6.04445312 -11.953125 6.03515625 C-12.62859375 6.02355469 -13.3040625 6.01195312 -14 6 C-10.39861521 4.16757734 -6.71762475 2.58343276 -3 1 C-1 0 -1 0 0 0 Z " fill="#E5716D" transform="translate(503,245)"/>
<path d="M0 0 C1.98 0 3.96 0 6 0 C6 1.65 6 3.3 6 5 C6.99 5 7.98 5 9 5 C9.33 6.65 9.66 8.3 10 10 C2.51708428 3.84965831 2.51708428 3.84965831 0 0 Z " fill="#E87975" transform="translate(54,284)"/>
<path d="M0 0 C0.33 0.99 0.66 1.98 1 3 C-0.32 3.99 -1.64 4.98 -3 6 C-5 4.625 -5 4.625 -7 3 C-7 2.34 -7 1.68 -7 1 C-3.375 -1.125 -3.375 -1.125 0 0 Z " fill="#E7625E" transform="translate(71,292)"/>
<path d="M0 0 C0.66 0 1.32 0 2 0 C2.33 0.66 2.66 1.32 3 2 C3.95712891 1.98259766 3.95712891 1.98259766 4.93359375 1.96484375 C6.17302734 1.95130859 6.17302734 1.95130859 7.4375 1.9375 C8.26121094 1.92589844 9.08492188 1.91429687 9.93359375 1.90234375 C12 2 12 2 13 3 C13.07226502 4.85287502 13.0838122 6.70833878 13.0625 8.5625 C13.05347656 9.57441406 13.04445313 10.58632813 13.03515625 11.62890625 C13.02355469 12.41136719 13.01195312 13.19382812 13 14 C12.67 14 12.34 14 12 14 C11.67 11.03 11.34 8.06 11 5 C8.72135417 4.77213542 6.44270833 4.54427083 4.1640625 4.31640625 C2 4 2 4 0 3 C0 2.01 0 1.02 0 0 Z " fill="#EAB9B7" transform="translate(263,246)"/>
<path d="M0 0 C2.475 0.495 2.475 0.495 5 1 C5.33 4.3 5.66 7.6 6 11 C4.35 11.33 2.7 11.66 1 12 C1.66 8.7 2.32 5.4 3 2 C2.01 1.67 1.02 1.34 0 1 C0 0.67 0 0.34 0 0 Z " fill="#E48584" transform="translate(319,235)"/>
<path d="M0 0 C1.32 0.33 2.64 0.66 4 1 C2.79157144 5.43090471 1.48331435 7.98112756 -2 11 C-2 9.68 -2 8.36 -2 7 C-1.34 7 -0.68 7 0 7 C0 6.01 0 5.02 0 4 C-0.66 3.67 -1.32 3.34 -2 3 C-1.34 2.01 -0.68 1.02 0 0 Z " fill="#E87974" transform="translate(211,265)"/>
<path d="M0 0 C1.2380014 3.57644848 0.74926071 6.33694766 0 10 C-0.66 10 -1.32 10 -2 10 C-2.33 11.32 -2.66 12.64 -3 14 C-3.66 14 -4.32 14 -5 14 C-4.54636829 12.41531323 -4.08688548 10.83230076 -3.625 9.25 C-3.36976562 8.36828125 -3.11453125 7.4865625 -2.8515625 6.578125 C-2.0790066 4.23919428 -1.16374324 2.16557438 0 0 Z " fill="#E48480" transform="translate(41,179)"/>
<path d="M0 0 C0.33 0.99 0.66 1.98 1 3 C0.01 3.33 -0.98 3.66 -2 4 C-2.33 4.99 -2.66 5.98 -3 7 C-4.32 7 -5.64 7 -7 7 C-7 7.66 -7 8.32 -7 9 C-7.99 8.67 -8.98 8.34 -10 8 C-8.68 7.34 -7.36 6.68 -6 6 C-6 5.34 -6 4.68 -6 4 C-4.03852126 2.61061923 -2.03833424 1.2739589 0 0 Z " fill="#E37B7B" transform="translate(74,142)"/>
<path d="M0 0 C0.33 0 0.66 0 1 0 C1.33 2.97 1.66 5.94 2 9 C0.02 9.99 0.02 9.99 -2 11 C-3.13643966 7.59068103 -2.86747764 6.99664544 -1.5625 3.8125 C-1.13130859 2.73935547 -1.13130859 2.73935547 -0.69140625 1.64453125 C-0.46324219 1.10183594 -0.23507812 0.55914062 0 0 Z " fill="#E87A70" transform="translate(429,219)"/>
<path d="M0 0 C2.93200474 2.85276137 5.64315404 5.65079784 8 9 C7.01 9 6.02 9 5 9 C4.01 9.33 3.02 9.66 2 10 C1.855625 8.906875 1.71125 7.81375 1.5625 6.6875 C1.11711896 3.06877013 1.11711896 3.06877013 0 0 Z " fill="#EB827E" transform="translate(199,156)"/>
<path d="M0 0 C0 0.99 0 1.98 0 3 C-0.66 3 -1.32 3 -2 3 C-2.33 3.99 -2.66 4.98 -3 6 C-5.31 6 -7.62 6 -10 6 C-7.35570758 3.077361 -4.105808 0 0 0 Z " fill="#E37570" transform="translate(86,136)"/>
<path d="M0 0 C6.0546875 -0.1953125 6.0546875 -0.1953125 8 0 C8.66 0.66 9.32 1.32 10 2 C5.545 3.485 5.545 3.485 1 5 C0.67 3.35 0.34 1.7 0 0 Z " fill="#E96861" transform="translate(153,131)"/>
<path d="M0 0 C1.98 0.99 1.98 0.99 4 2 C4.66 1.34 5.32 0.68 6 0 C5.835 0.886875 5.67 1.77375 5.5 2.6875 C5.07004243 5.53596892 4.91558965 8.13004802 5 11 C2.03947516 7.63576723 1.07710178 4.30840713 0 0 Z " fill="#E67272" transform="translate(406,240)"/>
<path d="M0 0 C0.99 0 1.98 0 3 0 C2.67 1.98 2.34 3.96 2 6 C0.02 6.33 -1.96 6.66 -4 7 C-2.68 4.69 -1.36 2.38 0 0 Z " fill="#E46E6C" transform="translate(50,165)"/>
<path d="M0 0 C8.57142857 0.71428571 8.57142857 0.71428571 12 4 C8.35839192 5.21386936 7.66834531 4.6674695 4.3125 3.0625 C3.10013672 2.49208984 3.10013672 2.49208984 1.86328125 1.91015625 C1.24839844 1.60980469 0.63351563 1.30945313 0 1 C0 0.67 0 0.34 0 0 Z " fill="#E58682" transform="translate(83,307)"/>
<path d="M0 0 C1.32 0.33 2.64 0.66 4 1 C3.34 2.98 2.68 4.96 2 7 C-0.97 6.505 -0.97 6.505 -4 6 C-3.01 5.34 -2.02 4.68 -1 4 C-0.34 4.33 0.32 4.66 1 5 C0.67 3.35 0.34 1.7 0 0 Z " fill="#F06263" transform="translate(505,253)"/>
<path d="M0 0 C0.66 0 1.32 0 2 0 C1.814375 1.0725 1.62875 2.145 1.4375 3.25 C1.0695432 6.40391546 0.95534657 8.09818492 2 11 C1.01 10.67 0.02 10.34 -1 10 C-1.02689216 8.52093108 -1.04634621 7.04172517 -1.0625 5.5625 C-1.07410156 4.73878906 -1.08570313 3.91507813 -1.09765625 3.06640625 C-1 1 -1 1 0 0 Z " fill="#E17778" transform="translate(296,236)"/>
<path d="M0 0 C2.97 0 5.94 0 9 0 C9 0.33 9 0.66 9 1 C7.02 1 5.04 1 3 1 C3.66 3.31 4.32 5.62 5 8 C1.91763635 5.21592961 1.04793663 4.19174654 0 0 Z " fill="#ECA3A0" transform="translate(407,210)"/>
<path d="M0 0 C0.66 0 1.32 0 2 0 C1.34 1.98 0.68 3.96 0 6 C-3.3 6 -6.6 6 -10 6 C-10 5.67 -10 5.34 -10 5 C-7.36 5 -4.72 5 -2 5 C-1.34 3.35 -0.68 1.7 0 0 Z " fill="#E16662" transform="translate(417,282)"/>
<path d="M0 0 C0.495 0.474375 0.99 0.94875 1.5 1.4375 C4.99468651 3.62167907 7.90966936 3.65913911 12 4 C12 4.33 12 4.66 12 5 C10.37585622 5.19477739 8.75063577 5.38059458 7.125 5.5625 C6.22007812 5.66691406 5.31515625 5.77132812 4.3828125 5.87890625 C2 6 2 6 0 5 C0 3.35 0 1.7 0 0 Z " fill="#EC9B97" transform="translate(298,247)"/>
<path d="M0 0 C2.31 0.33 4.62 0.66 7 1 C7.33 1.99 7.66 2.98 8 4 C6.35 4.33 4.7 4.66 3 5 C3 4.34 3 3.68 3 3 C2.34 3 1.68 3 1 3 C0.67 2.01 0.34 1.02 0 0 Z " fill="#E56D6D" transform="translate(319,197)"/>
<path d="M0 0 C1.485 0.99 1.485 0.99 3 2 C3 3.32 3 4.64 3 6 C3.66 6 4.32 6 5 6 C5 7.65 5 9.3 5 11 C1.71779105 9.35889552 1.25429211 6.30677012 0 3 C0 2.01 0 1.02 0 0 Z " fill="#E47E77" transform="translate(38,256)"/>
<path d="M0 0 C0.99 0.33 1.98 0.66 3 1 C3 2.65 3 4.3 3 6 C3.66 6 4.32 6 5 6 C4.67 7.65 4.34 9.3 4 11 C3.33333333 9.66666667 2.66666667 8.33333333 2 7 C1.62875 6.319375 1.2575 5.63875 0.875 4.9375 C0 3 0 3 0 0 Z " fill="#E77F80" transform="translate(402,229)"/>
<path d="M0 0 C0.99 0 1.98 0 3 0 C2.5359375 1.2684375 2.5359375 1.2684375 2.0625 2.5625 C0.98461179 6.0497854 0.43418696 9.38177535 0 13 C-0.33 13 -0.66 13 -1 13 C-1.07654536 8.48382401 -1.10228696 4.40914783 0 0 Z " fill="#E2726F" transform="translate(471,220)"/>
<path d="M0 0 C1.65 1.65 3.3 3.3 5 5 C4.01 5.66 3.02 6.32 2 7 C1.01 6.67 0.02 6.34 -1 6 C-0.67 4.02 -0.34 2.04 0 0 Z " fill="#E77671" transform="translate(474,240)"/>
<path d="M0 0 C0.33 0 0.66 0 1 0 C1 2.97 1 5.94 1 9 C-0.32 8.34 -1.64 7.68 -3 7 C-1.125 1.125 -1.125 1.125 0 0 Z " fill="#E77F73" transform="translate(45,172)"/>
<path d="M0 0 C0.66 0.33 1.32 0.66 2 1 C1 3 1 3 -1.8125 4.1875 C-4.97904018 4.9946573 -6.01517795 4.91292822 -9 4 C-7.54618103 3.30300448 -6.08677047 2.61766134 -4.625 1.9375 C-3.40683594 1.36322266 -3.40683594 1.36322266 -2.1640625 0.77734375 C-1.44992188 0.52082031 -0.73578125 0.26429688 0 0 Z " fill="#E78981" transform="translate(96,131)"/>
<path d="M0 0 C3.3 0 6.6 0 10 0 C10 0.99 10 1.98 10 3 C6.7 2.34 3.4 1.68 0 1 C0 0.67 0 0.34 0 0 Z " fill="#E4807D" transform="translate(97,313)"/>
<path d="M0 0 C1.98 0.66 3.96 1.32 6 2 C5.67 3.65 5.34 5.3 5 7 C3.29115995 5.37660195 1.62553283 3.70680947 0 2 C0 1.34 0 0.68 0 0 Z " fill="#E67373" transform="translate(45,271)"/>
<path d="M0 0 C0.99 0.33 1.98 0.66 3 1 C2.34 1 1.68 1 1 1 C0.67 1.99 0.34 2.98 0 4 C-2.5625 5.1875 -2.5625 5.1875 -5 6 C-5 5.01 -5 4.02 -5 3 C-3.35 2.67 -1.7 2.34 0 2 C0 1.34 0 0.68 0 0 Z " fill="#E79392" transform="translate(189,295)"/>
<path d="M0 0 C1.670625 0.061875 1.670625 0.061875 3.375 0.125 C2.25 1.6875 2.25 1.6875 0.375 3.125 C-2.8125 2.8125 -2.8125 2.8125 -5.625 2.125 C-3.625 0.125 -3.625 0.125 0 0 Z " fill="#EC6260" transform="translate(322.625,246.875)"/>
<path d="M0 0 C0.66 0 1.32 0 2 0 C2.66 1.65 3.32 3.3 4 5 C1.69 5 -0.62 5 -3 5 C-1.625 2.5 -1.625 2.5 0 0 Z " fill="#E37470" transform="translate(506,240)"/>
<path d="M0 0 C3.63 0 7.26 0 11 0 C11.33 0.99 11.66 1.98 12 3 C6.06 2.01 6.06 2.01 0 1 C0 0.67 0 0.34 0 0 Z " fill="#E57E7B" transform="translate(307,207)"/>
<path d="M0 0 C0.33 0.99 0.66 1.98 1 3 C-2.75 6 -2.75 6 -5 6 C-5 3 -5 3 -3.625 1.3125 C-2 0 -2 0 0 0 Z " fill="#E57978" transform="translate(469,204)"/>
<path d="M0 0 C0.99 0.33 1.98 0.66 3 1 C1.84826645 3.46800047 0.95216435 5.04783565 -1 7 C-1.625 5.1875 -1.625 5.1875 -2 3 C-1.34 2.01 -0.68 1.02 0 0 Z " fill="#E77877" transform="translate(205,276)"/>
<path d="M0 0 C1 2 1 2 0.44140625 3.9453125 C0.15136719 4.66460937 -0.13867188 5.38390625 -0.4375 6.125 C-0.72496094 6.84945313 -1.01242187 7.57390625 -1.30859375 8.3203125 C-1.53675781 8.87460937 -1.76492188 9.42890625 -2 10 C-2.33 10 -2.66 10 -3 10 C-3.36923077 3.47692308 -3.36923077 3.47692308 -1.5 1.0625 C-1.005 0.711875 -0.51 0.36125 0 0 Z " fill="#E48786" transform="translate(425,265)"/>
<path d="M0 0 C0.66 0 1.32 0 2 0 C2.33 2.97 2.66 5.94 3 9 C0.23776722 6.23776722 0.42143709 3.79293383 0 0 Z " fill="#E27F81" transform="translate(35,247)"/>
<path d="M0 0 C0.33 0.66 0.66 1.32 1 2 C0.0625 4.625 0.0625 4.625 -1 7 C-1.99 6.67 -2.98 6.34 -4 6 C-1.125 1.125 -1.125 1.125 0 0 Z " fill="#E57F80" transform="translate(289,204)"/>
<path d="M0 0 C1.40182371 2.61673759 2.60495559 5.0371669 3 8 C2.34 8.66 1.68 9.32 1 10 C1 9.01 1 8.02 1 7 C0.34 7 -0.32 7 -1 7 C-0.67 4.69 -0.34 2.38 0 0 Z " fill="#E5736F" transform="translate(218,185)"/>
</svg>
